<svg width="64" height="64" viewBox="0 0 64 64" fill="none" xmlns="http://www.w3.org/2000/svg">
<rect width="64" height="64" rx="18" fill="#16161E"/>
<path d="M20.815 48.6027C21.1048 48.6259 21.3786 48.6883 21.6351 48.7846C21.4117 49.2628 21.1218 49.585 20.815 49.6972V48.6027Z" fill="url(#paint0_linear_97_306)"/>
<path d="M20.3329 49.6965C20.026 49.5846 19.7362 49.2636 19.5128 48.7843C19.761 48.6899 20.0405 48.626 20.3329 48.6027V49.6965Z" fill="url(#paint1_linear_97_306)"/>
<path d="M22.0773 48.9943C22.1733 49.0495 22.2613 49.106 22.3445 49.1661C22.1716 49.2925 21.9857 49.3999 21.79 49.4863C21.9014 49.3321 21.9978 49.1675 22.0773 48.9943Z" fill="url(#paint2_linear_97_306)"/>
<path d="M19.0724 48.9934C19.1507 49.1654 19.2455 49.3292 19.3558 49.4823C19.1618 49.3965 18.9771 49.2906 18.805 49.1661C18.889 49.105 18.979 49.047 19.0724 48.9934Z" fill="url(#paint3_linear_97_306)"/>
<path d="M18.6208 46.963C18.6361 47.4998 18.727 48.0318 18.8912 48.5429C18.7225 48.6362 18.5715 48.7354 18.4302 48.8443C17.9278 48.3395 17.6212 47.6729 17.5651 46.963H18.6208Z" fill="url(#paint4_linear_97_306)"/>
<path d="M23.5827 46.963C23.5262 47.6727 23.2197 48.3391 22.7176 48.8443C22.5719 48.7313 22.4174 48.6299 22.2557 48.5413C22.4137 48.0646 22.5109 47.5245 22.5271 46.963H23.5827Z" fill="url(#paint5_linear_97_306)"/>
<path d="M22.0455 46.963C22.0288 47.4294 21.9498 47.8916 21.8106 48.3369C21.4916 48.2146 21.156 48.1415 20.815 48.1196V46.963H22.0455Z" fill="url(#paint6_linear_97_306)"/>
<path d="M20.3329 48.1196C19.9924 48.1425 19.6573 48.2152 19.3382 48.3357C19.2045 47.921 19.1203 47.4512 19.1024 46.9628H20.3329V48.1196Z" fill="url(#paint7_linear_97_306)"/>
<path d="M18.4298 44.5996C18.5722 44.7103 18.7281 44.8125 18.8919 44.9024C18.7339 45.3792 18.637 45.9195 18.6208 46.4811H17.5649C17.6214 45.7714 17.9276 45.1048 18.4298 44.5996Z" fill="url(#paint8_linear_97_306)"/>
<path d="M21.8094 45.1079C21.9432 45.5229 22.0276 45.9926 22.0455 46.4811H20.815V45.3238C21.1554 45.3009 21.4904 45.2284 21.8094 45.1079Z" fill="url(#paint9_linear_97_306)"/>
<path d="M22.7174 44.5993C23.22 45.1042 23.5265 45.771 23.5825 46.4811H22.5271C22.5118 45.9443 22.4206 45.4122 22.2564 44.901C22.4175 44.8122 22.5717 44.7115 22.7174 44.5993Z" fill="url(#paint10_linear_97_306)"/>
<path d="M19.338 45.1067C19.6569 45.2285 19.9922 45.3015 20.3329 45.3238V46.4807H19.1026C19.1205 46.0006 19.2016 45.5413 19.338 45.1067Z" fill="url(#paint11_linear_97_306)"/>
<path d="M20.3324 44.8412C20.0517 44.8192 19.7756 44.758 19.5121 44.6591C19.7363 44.181 20.0258 43.8591 20.3324 43.7469V44.8412Z" fill="url(#paint12_linear_97_306)"/>
<path d="M20.815 43.7471C21.1217 43.859 21.4115 44.18 21.6348 44.6591C21.3866 44.7535 21.1073 44.8178 20.815 44.8412V43.7471Z" fill="url(#paint13_linear_97_306)"/>
<path d="M21.7916 43.9604C21.9864 44.0465 22.1716 44.1531 22.3441 44.2785C22.26 44.3396 22.1701 44.3976 22.0766 44.4512C21.9977 44.2786 21.9022 44.1142 21.7916 43.9604Z" fill="url(#paint14_linear_97_306)"/>
<path d="M19.3572 43.9576C19.2459 44.1117 19.1498 44.2765 19.0703 44.4496C18.9785 44.3968 18.8892 44.3393 18.8033 44.2773C18.9761 44.1511 19.1617 44.0439 19.3572 43.9576Z" fill="url(#paint15_linear_97_306)"/>
<path fill-rule="evenodd" clip-rule="evenodd" d="M23.0359 28.6166C23.7317 28.4679 24.4375 28.4213 25.1326 28.4708C26.8768 28.594 28.5775 29.2955 30.0016 30.5005C30.2911 30.746 30.5658 31.0178 30.8296 31.3046C30.0209 31.1139 29.2257 31.0328 28.4031 31.0471C26.7004 31.0798 24.9025 31.6403 23.4084 33.0083C23.0026 33.3727 22.6282 33.7972 22.2911 34.2674C22.2554 33.2575 22.3837 32.2716 22.6553 31.3382C21.9921 32.2026 21.4331 33.1422 21.0013 34.1417C19.9343 36.6133 19.6225 39.4558 20.4208 42.5146C20.6239 42.5083 20.8299 42.514 21.0379 42.5375C23.3597 42.7998 25.0265 44.8679 24.76 47.1549C24.4933 49.4423 22.393 51.0833 20.0711 50.821C17.7493 50.559 16.0826 48.4934 16.3492 46.206C16.5298 44.6572 17.5516 43.4044 18.9126 42.8385C18.0582 39.4855 18.3884 36.2978 19.5761 33.5474C20.3818 31.6814 21.5729 30.0161 23.0359 28.6166ZM20.5731 43.2217C19.6923 43.2217 18.8879 43.5476 18.2734 44.0856C18.2648 44.0922 18.2569 44.0998 18.2493 44.1076C17.8792 44.4353 17.583 44.8383 17.3802 45.2891C17.1775 45.7398 17.0728 46.2285 17.0732 46.7228L17.0746 46.8196C17.1017 47.8163 17.5461 48.709 18.2392 49.329L18.2413 49.3309C18.2513 49.3416 18.2623 49.3515 18.2739 49.3604C18.9098 49.918 19.7274 50.2246 20.5731 50.2232C21.4229 50.2244 22.2442 49.9149 22.8815 49.3527L22.8812 49.3524C23.2558 49.0258 23.5563 48.6229 23.7623 48.1705C23.9689 47.7164 24.0756 47.223 24.0751 46.7242V46.6742L24.074 46.6735C24.0606 45.6564 23.6127 44.7442 22.9075 44.1142L22.9054 44.1123L22.903 44.1104C22.8933 44.1006 22.8828 44.0915 22.8716 44.0835C22.2358 43.5263 21.4186 43.2201 20.5731 43.2217ZM24.0665 29.7549C23.9285 29.6742 23.7272 29.7618 23.6172 29.9497C23.5073 30.1376 23.5299 30.3552 23.6678 30.436C23.8058 30.5168 24.0071 30.4301 24.1171 30.2422C24.227 30.0543 24.2044 29.8357 24.0665 29.7549Z" fill="url(#paint16_linear_97_306)"/>
<path d="M47.5384 47.5449C47.7417 47.563 47.9343 47.6065 48.1155 47.6727C47.9546 48.0099 47.7511 48.2376 47.5384 48.3266V47.5449Z" fill="url(#paint17_linear_97_306)"/>
<path d="M47.1358 48.3261C46.923 48.2374 46.7194 48.0103 46.5585 47.6722C46.7344 47.6073 46.9307 47.5629 47.1358 47.5447V48.3261Z" fill="url(#paint18_linear_97_306)"/>
<path d="M48.4846 47.8475C48.5418 47.881 48.595 47.9155 48.6459 47.9514C48.541 48.0261 48.43 48.0917 48.314 48.1473C48.3784 48.052 48.4355 47.9518 48.4846 47.8475Z" fill="url(#paint19_linear_97_306)"/>
<path d="M46.1906 47.8471C46.2389 47.9507 46.2955 48.0502 46.3593 48.1449C46.2441 48.0898 46.1338 48.0249 46.0293 47.9511C46.0806 47.9147 46.1347 47.8798 46.1906 47.8471Z" fill="url(#paint20_linear_97_306)"/>
<path d="M45.8399 46.3011C45.853 46.6984 45.9205 47.0917 46.0408 47.4704C45.9225 47.5365 45.8156 47.6066 45.7152 47.683C45.3491 47.3099 45.124 46.8216 45.0782 46.3011H45.8399Z" fill="url(#paint21_linear_97_306)"/>
<path d="M49.596 46.3011C49.5498 46.8214 49.3248 47.3095 48.959 47.6828C48.8557 47.6037 48.7469 47.5324 48.6332 47.4692C48.749 47.115 48.8208 46.716 48.8345 46.3011H49.596Z" fill="url(#paint22_linear_97_306)"/>
<path d="M48.4316 46.3011C48.4179 46.6395 48.3609 46.9745 48.2615 47.2982C48.0293 47.2113 47.7858 47.1582 47.5384 47.1407V46.3011H48.4316Z" fill="url(#paint23_linear_97_306)"/>
<path d="M47.1358 47.1409C46.8888 47.1591 46.6455 47.2115 46.4132 47.2972C46.3177 46.995 46.2572 46.6548 46.2426 46.3009H47.1358V47.1409Z" fill="url(#paint24_linear_97_306)"/>
<path d="M45.7148 44.5164C45.816 44.594 45.9257 44.6659 46.0408 44.7299C45.925 45.0841 45.8534 45.4832 45.8397 45.8982H45.078C45.1242 45.378 45.349 44.8897 45.7148 44.5164Z" fill="url(#paint25_linear_97_306)"/>
<path d="M48.2606 44.9017C48.3561 45.2041 48.417 45.5442 48.4316 45.8982H47.5384V45.058C47.7853 45.0398 48.0284 44.9873 48.2606 44.9017Z" fill="url(#paint26_linear_97_306)"/>
<path d="M48.9588 44.5161C49.3249 44.8892 49.55 45.3776 49.5958 45.8982H48.8343C48.8213 45.501 48.7537 45.1077 48.6334 44.7289C48.7468 44.6657 48.8555 44.5946 48.9588 44.5161Z" fill="url(#paint27_linear_97_306)"/>
<path d="M46.4132 44.9007C46.6454 44.9873 46.8886 45.0402 47.1358 45.058V45.898H46.2426C46.2572 45.55 46.3158 45.2168 46.4132 44.9007Z" fill="url(#paint28_linear_97_306)"/>
<path d="M47.1353 44.6544C46.9381 44.6372 46.744 44.5943 46.5581 44.5264C46.7195 44.1894 46.9229 43.962 47.1353 43.873V44.6544Z" fill="url(#paint29_linear_97_306)"/>
<path d="M47.5384 43.8728C47.7512 43.9615 47.9546 44.1887 48.1155 44.5267C47.9396 44.5916 47.7435 44.6362 47.5384 44.6544V43.8728Z" fill="url(#paint30_linear_97_306)"/>
<path d="M48.3145 44.0535C48.4302 44.1089 48.5411 44.1741 48.6459 44.2485C48.5944 44.2849 48.5401 44.3197 48.4841 44.3525C48.4354 44.2485 48.3785 44.1486 48.3145 44.0535Z" fill="url(#paint31_linear_97_306)"/>
<path d="M46.3598 44.0516C46.2954 44.1469 46.2385 44.2473 46.1894 44.3516C46.1341 44.3192 46.0802 44.2844 46.0279 44.2475C46.1328 44.1728 46.2438 44.1071 46.3598 44.0516Z" fill="url(#paint32_linear_97_306)"/>
<path fill-rule="evenodd" clip-rule="evenodd" d="M28.3391 32.5923C28.6772 32.5982 29.0206 32.6284 29.3605 32.6748C29.0439 32.7788 28.7308 32.9069 28.4312 33.0807C27.6448 33.5443 26.9091 34.1966 26.3298 35.1271C25.7509 36.0464 25.4155 37.2533 25.4144 38.4043C25.406 39.5589 25.6802 40.635 26.0959 41.5428C26.7092 42.8693 27.6108 43.8803 28.6427 44.5424C29.328 45.154 30.0801 45.6974 30.8948 46.1574C34.2719 48.0646 38.7391 48.6009 44.1084 46.6269C44.1071 46.6192 44.1042 46.6117 44.103 46.6039C43.838 44.8486 45.0687 43.2141 46.8506 42.9535C48.6324 42.6928 50.2918 43.905 50.557 45.6601C50.8219 47.4155 49.5912 49.0499 47.8094 49.3107C46.5713 49.4918 45.3949 48.9616 44.7018 48.0327C38.9451 50.1511 33.924 49.627 30.1251 47.4817C25.8471 45.0654 23.151 40.6657 22.4971 35.9174C22.4941 35.9032 22.4912 35.8887 22.4882 35.8745C22.8962 35.1864 23.3904 34.5863 23.9481 34.115C25.2394 33.0033 26.8066 32.5601 28.3391 32.5923ZM47.3364 43.4291C46.6617 43.4292 46.0456 43.6796 45.576 44.0931L45.5763 44.0933C45.5718 44.0971 45.5675 44.1011 45.5634 44.1053C45.2811 44.3553 45.0552 44.6625 44.9006 45.0064C44.7459 45.3504 44.6659 45.7232 44.6662 46.1003L44.6671 46.1741C44.6878 46.9346 45.027 47.6157 45.5559 48.0887L45.558 48.0906C45.5669 48.0999 45.5764 48.1087 45.5868 48.1164C46.0714 48.5394 46.6932 48.7721 47.3366 48.771C47.985 48.7719 48.6115 48.5357 49.0977 48.1067L49.0975 48.1065C49.3832 47.8573 49.6126 47.55 49.7697 47.2049C49.9274 46.8584 50.0088 46.4821 50.0085 46.1014V46.0517L50.0073 46.051C49.9939 45.2796 49.6528 44.5882 49.1174 44.1099L49.1153 44.1081L49.1137 44.1069C49.106 44.0993 49.0978 44.0921 49.0891 44.0858C48.6041 43.6613 47.981 43.4279 47.3364 43.4291ZM24.3027 38.2717C24.0176 38.2422 23.754 38.5251 23.7149 38.9033C23.6759 39.281 23.8761 39.6116 24.1612 39.6411C24.4467 39.6705 24.71 39.3879 24.749 39.0102C24.7879 38.632 24.5882 38.3012 24.3027 38.2717Z" fill="url(#paint33_linear_97_306)"/>
<path fill-rule="evenodd" clip-rule="evenodd" d="M27.6069 35.5714C27.6233 35.9265 27.693 36.24 27.7769 36.5178C27.9934 37.1766 28.2942 37.6818 28.6265 38.136C29.2959 39.0286 30.0758 39.664 30.8802 40.1905C32.4976 41.224 34.237 41.8293 36.0243 42.0981C36.4362 42.1571 36.8516 42.1961 37.2695 42.2106C36.6283 42.46 35.9694 42.6692 35.2982 42.8359C34.6751 43.0653 34.018 43.2358 33.3337 43.336C31.5435 43.5979 29.7958 43.3556 28.2377 42.7187C27.7305 42.1883 27.3017 41.5452 26.9912 40.8137C26.6679 40.0538 26.4854 39.1947 26.5145 38.3553C26.5396 37.5172 26.7866 36.7169 27.2139 36.0746C27.3312 35.8949 27.4645 35.7288 27.6069 35.5714ZM30.5903 40.9834C30.2724 40.8465 29.8665 41.0777 29.6852 41.499C29.5035 41.9213 29.6147 42.3744 29.9327 42.5113C30.251 42.6483 30.6567 42.4177 30.8385 41.9954C31.0198 41.5741 30.9087 41.1204 30.5903 40.9834Z" fill="url(#paint34_linear_97_306)"/>
<path d="M45.7898 31.0857C45.9119 31.0989 46.0283 31.1264 46.1388 31.1659C46.0375 31.3769 45.9151 31.5208 45.7898 31.5885V31.0857Z" fill="url(#paint35_linear_97_306)"/>
<path d="M45.4612 31.588C45.3357 31.5205 45.213 31.377 45.1117 31.1654C45.2194 31.1267 45.3378 31.099 45.4612 31.0857V31.588Z" fill="url(#paint36_linear_97_306)"/>
<path d="M46.503 31.3543C46.4607 31.3841 46.4172 31.4118 46.3724 31.4371C46.3963 31.3965 46.4184 31.3548 46.4388 31.3121C46.4609 31.326 46.4823 31.3399 46.503 31.3543Z" fill="url(#paint37_linear_97_306)"/>
<path d="M44.8127 31.3117C44.8327 31.3539 44.8546 31.3952 44.8781 31.4354C44.8337 31.4105 44.7905 31.3833 44.7487 31.3541C44.7695 31.3396 44.7908 31.3253 44.8127 31.3117Z" fill="url(#paint38_linear_97_306)"/>
<path d="M44.5546 30.1878C44.5652 30.463 44.6109 30.7354 44.6906 30.9983C44.6195 31.04 44.554 31.0836 44.4923 31.1307C44.2537 30.8736 44.1048 30.5419 44.0695 30.1878H44.5546Z" fill="url(#paint39_linear_97_306)"/>
<path d="M47.1815 30.1878C47.1459 30.5418 46.9968 30.8732 46.7584 31.1305C46.6951 31.0818 46.6287 31.0375 46.5599 30.9974C46.6367 30.7505 46.685 30.4746 46.6961 30.1878H47.1815Z" fill="url(#paint40_linear_97_306)"/>
<path d="M46.3675 30.1878C46.3568 30.4139 46.3201 30.6378 46.2573 30.8546C46.1067 30.7991 45.9494 30.7642 45.7898 30.7506V30.1878H46.3675Z" fill="url(#paint41_linear_97_306)"/>
<path d="M45.4612 30.7503C45.3017 30.7643 45.1446 30.7993 44.9938 30.8542C44.9335 30.6507 44.8947 30.4238 44.8834 30.1878H45.4612V30.7503Z" fill="url(#paint42_linear_97_306)"/>
<path d="M44.492 28.9114C44.5543 28.9594 44.6211 29.004 44.6906 29.0446C44.6137 29.2914 44.5659 29.5675 44.5548 29.8543H44.0692C44.1049 29.5004 44.2537 29.1687 44.492 28.9114Z" fill="url(#paint43_linear_97_306)"/>
<path d="M46.2564 29.1875C46.3168 29.3913 46.3562 29.6182 46.3675 29.8543H45.7898V29.2914C45.9491 29.2774 46.1058 29.2423 46.2564 29.1875Z" fill="url(#paint44_linear_97_306)"/>
<path d="M46.7582 28.9112C46.9969 29.1684 47.1461 29.5001 47.1815 29.8543H46.6961C46.6855 29.5792 46.6398 29.3068 46.5602 29.0439C46.6287 29.0037 46.6949 28.9595 46.7582 28.9112Z" fill="url(#paint45_linear_97_306)"/>
<path d="M44.9936 29.1873C45.1443 29.2427 45.3016 29.2776 45.4612 29.2914V29.8541H44.8837C44.8949 29.6221 44.9321 29.3993 44.9936 29.1873Z" fill="url(#paint46_linear_97_306)"/>
<path d="M45.4607 28.9564C45.3418 28.9437 45.2247 28.9167 45.1117 28.8763C45.2133 28.6654 45.3355 28.5216 45.4607 28.4539V28.9564Z" fill="url(#paint47_linear_97_306)"/>
<path d="M45.7898 28.4537C45.9152 28.5212 46.0375 28.6651 46.1388 28.8765C46.0311 28.9153 45.913 28.9431 45.7898 28.9564V28.4537Z" fill="url(#paint48_linear_97_306)"/>
<path d="M46.3724 28.606C46.4172 28.6312 46.4608 28.6587 46.503 28.6883C46.482 28.7029 46.4605 28.7172 46.4385 28.731C46.4183 28.6883 46.3962 28.6466 46.3724 28.606Z" fill="url(#paint49_linear_97_306)"/>
<path d="M44.8785 28.6046C44.8546 28.6454 44.8321 28.687 44.8117 28.7298C44.7901 28.7162 44.7687 28.702 44.7477 28.6874C44.79 28.6576 44.8336 28.6299 44.8785 28.6046Z" fill="url(#paint50_linear_97_306)"/>
<path d="M42.4555 19.9529C42.7725 19.9777 43.0716 20.0457 43.3516 20.1514C43.1087 20.6738 42.792 21.026 42.4555 21.1452V19.9529Z" fill="url(#paint51_linear_97_306)"/>
<path d="M41.9488 21.1442C41.6123 21.0254 41.2954 20.6747 41.0526 20.1512C41.3234 20.0475 41.6291 19.9776 41.9488 19.9527V21.1442Z" fill="url(#paint52_linear_97_306)"/>
<path d="M43.8166 20.372C43.9247 20.4339 44.0233 20.4973 44.1166 20.5651C43.9226 20.7076 43.7136 20.8279 43.4931 20.9235C43.6193 20.7512 43.7276 20.5665 43.8166 20.372Z" fill="url(#paint53_linear_97_306)"/>
<path d="M40.5895 20.3713C40.6771 20.565 40.7846 20.7488 40.9098 20.9202C40.6908 20.8251 40.4829 20.7058 40.2895 20.5651C40.3835 20.4963 40.4845 20.4312 40.5895 20.3713Z" fill="url(#paint54_linear_97_306)"/>
<path d="M40.1069 18.1892C40.1229 18.7697 40.2211 19.345 40.3991 19.8976C40.2142 19.9995 40.0491 20.108 39.8948 20.2274C39.3497 19.6813 39.0176 18.9584 38.9584 18.1892H40.1069Z" fill="url(#paint55_linear_97_306)"/>
<path d="M45.4459 18.1892C45.3862 18.9582 45.0542 19.6809 44.5094 20.2274C44.3501 20.1035 44.1811 19.9927 44.0041 19.896C44.1753 19.3809 44.2805 18.7967 44.2975 18.1892H45.4459Z" fill="url(#paint56_linear_97_306)"/>
<path d="M43.7913 18.1892C43.7738 18.6958 43.688 19.1976 43.5363 19.681C43.1901 19.5477 42.8258 19.4681 42.4555 19.445V18.1892H43.7913Z" fill="url(#paint57_linear_97_306)"/>
<path d="M41.9488 19.445C41.5791 19.4692 41.2153 19.5482 40.8691 19.6796C40.7234 19.2298 40.6319 18.7196 40.6131 18.189H41.9488V19.445Z" fill="url(#paint58_linear_97_306)"/>
<path d="M39.8945 15.6444C40.0501 15.7658 40.2206 15.8777 40.4001 15.9758C40.2288 16.4909 40.1239 17.0751 40.1069 17.6825H38.958C39.0177 16.9136 39.3498 16.1908 39.8945 15.6444Z" fill="url(#paint59_linear_97_306)"/>
<path d="M43.5348 16.1917C43.6806 16.6418 43.7724 17.1519 43.7913 17.6825H42.4555V16.4263C42.8251 16.4021 43.1887 16.3231 43.5348 16.1917Z" fill="url(#paint60_linear_97_306)"/>
<path d="M44.5091 15.6442C45.0544 16.1902 45.3868 16.9132 45.4459 17.6825H44.2975C44.2814 17.102 44.1828 16.5268 44.0048 15.9742C44.1812 15.8773 44.3499 15.7671 44.5091 15.6442Z" fill="url(#paint61_linear_97_306)"/>
<path d="M40.8688 16.1905C41.2149 16.3233 41.5789 16.4027 41.9488 16.4263V17.6823H40.6131C40.632 17.1608 40.7202 16.6621 40.8688 16.1905Z" fill="url(#paint62_linear_97_306)"/>
<path d="M41.9481 15.9189C41.6414 15.8954 41.3398 15.8287 41.0521 15.7201C41.2958 15.1981 41.612 14.8463 41.9481 14.7271V15.9189Z" fill="url(#paint63_linear_97_306)"/>
<path d="M42.4555 14.7271C42.792 14.8459 43.1085 15.1968 43.3513 15.7201C43.0805 15.8238 42.7751 15.8939 42.4555 15.9189V14.7271Z" fill="url(#paint64_linear_97_306)"/>
<path d="M43.4941 14.9504C43.714 15.0458 43.9225 15.1657 44.1163 15.3074C44.0222 15.3762 43.921 15.4414 43.8159 15.5014C43.7274 15.3072 43.6197 15.1226 43.4941 14.9504Z" fill="url(#paint65_linear_97_306)"/>
<path d="M40.911 14.9478C40.7848 15.1201 40.6763 15.3049 40.5873 15.4996C40.484 15.4404 40.3839 15.3759 40.2876 15.306C40.4815 15.1635 40.6906 15.0433 40.911 14.9478Z" fill="url(#paint66_linear_97_306)"/>
<path fill-rule="evenodd" clip-rule="evenodd" d="M42.3145 13.2835C44.6058 13.293 46.6115 14.9496 46.9591 17.2508C47.2369 19.0908 46.3779 20.8377 44.9038 21.8045C45.7878 23.9483 46.2698 25.9908 46.4097 27.8992C47.183 28.1731 47.7835 28.8487 47.913 29.7053C48.0933 30.8995 47.2929 32.0135 46.1092 32.259C45.8022 33.6339 45.2974 34.9046 44.6291 36.0552C43.5964 37.8331 42.1853 39.3176 40.5353 40.4717C39.9611 40.72 39.3432 40.8473 38.7273 40.9009C37.8892 40.9714 37.0413 40.9081 36.2083 40.7567C34.543 40.446 32.9083 39.8025 31.4608 38.8053C31.0777 38.5374 30.7091 38.2382 30.3684 37.9086C30.9245 38.0995 31.4821 38.2096 32.0484 38.2836C32.9906 38.3884 33.9492 38.31 34.8869 38.0593C36.7562 37.5541 38.5695 36.3782 39.9517 34.5182C40.5104 33.7621 40.9919 32.8805 41.3216 31.9025C41.3695 32.1169 41.4107 32.3344 41.444 32.5548C41.7851 34.8136 41.2872 37.0053 40.1816 38.8229C41.4215 37.8562 42.483 36.6718 43.2815 35.2972C43.8528 34.3136 44.2951 33.23 44.575 32.0523C43.9407 31.7281 43.4672 31.1203 43.3539 30.3709C43.189 29.2767 43.8461 28.2496 44.8677 27.8964C44.7296 26.2054 44.2889 24.3795 43.4861 22.4293C43.3232 22.4709 43.1562 22.5062 42.9859 22.5313C40.4082 22.9082 38.0069 21.1546 37.6234 18.6153C37.24 16.076 39.019 13.7116 41.5968 13.3344C41.8383 13.2991 42.0777 13.2825 42.3147 13.2833L42.3145 13.2835ZM38.1447 38.4758C37.8949 38.4501 37.6649 38.6977 37.6307 39.0287C37.5966 39.3586 37.7711 39.6481 38.0209 39.6739C38.2708 39.6997 38.5009 39.4519 38.5349 39.122C38.569 38.791 38.3945 38.5016 38.1447 38.4758ZM40.2234 36.7771C40.0332 36.7574 39.8575 36.9458 39.8315 37.1978C39.8055 37.4498 39.9389 37.6705 40.1291 37.6902C40.3193 37.7098 40.4945 37.5208 40.5205 37.2688C40.5465 37.0169 40.4135 36.7967 40.2234 36.7771ZM45.625 28.0764C45.1462 28.0764 44.7092 28.2595 44.3765 28.5608L44.3767 28.561C44.3736 28.5637 44.3707 28.5666 44.3678 28.5695L44.3676 28.5692C44.1675 28.7515 44.0076 28.9754 43.8981 29.2257C43.7887 29.476 43.7322 29.7474 43.7324 30.0217C43.7324 30.5604 43.9461 31.0483 44.2914 31.4003L44.3622 31.4687C44.3693 31.4764 44.377 31.4836 44.3854 31.49C44.7285 31.7976 45.169 31.9668 45.625 31.966C46.0838 31.9667 46.5266 31.7953 46.8707 31.4844L46.8709 31.4846L46.8728 31.483L46.8726 31.4828C46.873 31.4824 46.8736 31.4822 46.874 31.4818L46.8738 31.4816C47.0762 31.3 47.2386 31.0763 47.3498 30.8251C47.4474 30.6045 47.5038 30.3673 47.5162 30.126L47.5188 30.0224V29.9739L47.5169 29.9729C47.5048 29.4528 47.2943 28.983 46.9588 28.6414L46.8881 28.573L46.8859 28.5711C46.881 28.5662 46.8757 28.5616 46.8702 28.5573C46.5478 28.2661 46.1384 28.0975 45.7108 28.0782L45.625 28.0764ZM42.2015 14.176C41.2521 14.1761 40.3851 14.5287 39.7241 15.1103C39.7175 15.1158 39.7111 15.1216 39.7052 15.1278C39.3077 15.4798 38.9896 15.9126 38.7719 16.3967C38.5541 16.8809 38.4417 17.4059 38.4421 17.9368C38.4421 19.0492 38.9261 20.0486 39.6946 20.736L39.6967 20.7378L39.6979 20.7388C39.7029 20.744 39.7078 20.7494 39.7131 20.7542L39.7363 20.7735C40.4188 21.3701 41.2949 21.698 42.2015 21.6964C43.112 21.6978 43.9916 21.367 44.6753 20.766L44.6791 20.7624C44.6795 20.7621 44.6801 20.7619 44.6805 20.7615L44.6802 20.7613C45.0826 20.4104 45.4055 19.9776 45.6266 19.4917C45.8486 19.004 45.9632 18.4741 45.9627 17.9382V17.8881L45.9616 17.8874C45.9482 16.7934 45.4669 15.8123 44.7086 15.1349L44.7065 15.133L44.7037 15.1307C44.6928 15.1197 44.681 15.1095 44.6683 15.1007C44.007 14.5219 43.1635 14.1953 42.2866 14.177L42.2015 14.176Z" fill="url(#paint67_linear_97_306)"/>
<path d="M14.7093 31.4415C14.9179 31.4599 15.1157 31.5045 15.3016 31.5725C15.1367 31.9187 14.9278 32.1521 14.7093 32.2426V31.4415Z" fill="url(#paint68_linear_97_306)"/>
<path d="M14.3015 32.2421C14.0829 32.1519 13.874 31.9191 13.7092 31.5723C13.8895 31.5056 14.091 31.46 14.3015 31.4415V32.2421Z" fill="url(#paint69_linear_97_306)"/>
<path d="M15.6751 31.7497C15.7348 31.7846 15.7902 31.8206 15.8432 31.858C15.7342 31.9359 15.6185 32.0037 15.4977 32.0612C15.5649 31.9623 15.6242 31.8581 15.6751 31.7497Z" fill="url(#paint70_linear_97_306)"/>
<path d="M13.3368 31.7492C13.387 31.8571 13.4458 31.9605 13.5123 32.0589C13.3924 32.0017 13.2774 31.9346 13.1687 31.8578C13.2222 31.8198 13.2785 31.7833 13.3368 31.7492Z" fill="url(#paint71_linear_97_306)"/>
<path d="M12.9796 30.1731C12.9928 30.579 13.0619 30.9809 13.1849 31.3679C13.0635 31.4357 12.9539 31.5077 12.8509 31.5861C12.4763 31.2048 12.2463 30.7054 12.1998 30.1731H12.9796Z" fill="url(#paint72_linear_97_306)"/>
<path d="M16.8112 30.1731C16.7643 30.7052 16.5341 31.2043 16.1598 31.5859C16.0539 31.5048 15.9423 31.4315 15.8256 31.3667C15.944 31.0049 16.0173 30.5971 16.0312 30.1731H16.8112Z" fill="url(#paint73_linear_97_306)"/>
<path d="M15.6236 30.1731C15.6097 30.5194 15.5511 30.8623 15.4492 31.1935C15.2116 31.1045 14.9625 31.0503 14.7093 31.0325V30.1731H15.6236Z" fill="url(#paint74_linear_97_306)"/>
<path d="M14.3015 30.1728V31.0325C14.0487 31.051 13.7999 31.1048 13.5623 31.1926C13.4644 30.8834 13.402 30.5352 13.3872 30.1728H14.3015Z" fill="url(#paint75_linear_97_306)"/>
<path d="M12.8505 28.352C12.9543 28.4317 13.067 28.5055 13.1851 28.5711C13.0667 28.9331 12.9937 29.3411 12.9798 29.7653H12.1994C12.2462 29.2331 12.4761 28.7335 12.8505 28.352Z" fill="url(#paint76_linear_97_306)"/>
<path d="M15.4483 28.7453C15.5462 29.0548 15.6087 29.4028 15.6236 29.7653H14.7093V28.9053C14.962 28.8869 15.2107 28.8331 15.4483 28.7453Z" fill="url(#paint77_linear_97_306)"/>
<path d="M16.1596 28.3517C16.5344 28.7331 16.7647 29.2327 16.8112 29.7653H16.0312C16.018 29.3593 15.9489 28.9573 15.8258 28.5702C15.9422 28.5054 16.0536 28.4324 16.1596 28.3517Z" fill="url(#paint78_linear_97_306)"/>
<path d="M13.562 28.7443C13.7996 28.833 14.0485 28.887 14.3015 28.9051V29.765H13.3874C13.4022 29.4089 13.4622 29.0678 13.562 28.7443Z" fill="url(#paint79_linear_97_306)"/>
<path d="M14.301 28.4968C14.0986 28.4793 13.8995 28.4351 13.7087 28.3653C13.874 28.0195 14.0828 27.7863 14.301 27.6957V28.4968Z" fill="url(#paint80_linear_97_306)"/>
<path d="M14.7093 27.6957C14.9278 27.7859 15.1366 28.0188 15.3013 28.3656C15.121 28.4323 14.9197 28.4781 14.7093 28.4966V27.6957Z" fill="url(#paint81_linear_97_306)"/>
<path d="M15.498 27.8783C15.6186 27.9357 15.7341 28.0035 15.8432 28.081C15.7897 28.1191 15.733 28.1552 15.6747 28.1893C15.624 28.0811 15.5648 27.9771 15.498 27.8783Z" fill="url(#paint82_linear_97_306)"/>
<path d="M13.5133 27.8762C13.446 27.9753 13.3864 28.0795 13.3354 28.1881C13.2779 28.1544 13.2218 28.1184 13.1673 28.0799C13.2765 28.0019 13.3923 27.9338 13.5133 27.8762Z" fill="url(#paint83_linear_97_306)"/>
<path fill-rule="evenodd" clip-rule="evenodd" d="M27.269 21.9062C31.4144 21.8911 35.2877 23.7385 38.0772 26.6591C39.2292 27.6028 40.1617 28.8112 40.7697 30.2082C40.7318 30.4334 40.6833 30.6568 40.6227 30.8764C40.3464 31.887 39.8524 32.8142 39.2451 33.5933C38.0235 35.1589 36.3889 36.1597 34.7331 36.541C34.5006 36.5953 34.2668 36.6334 34.0335 36.6629C34.1906 36.5452 34.3478 36.4293 34.4978 36.2935C35.3633 35.5067 36.0004 34.2394 36.2116 32.9272C36.4327 31.6128 36.3061 30.2999 35.9744 29.1498C35.6416 27.9942 35.1047 26.9801 34.4411 26.1599C33.1436 24.5463 31.3726 23.7361 29.6076 23.6471C28.8445 23.5032 28.065 23.429 27.2767 23.432C23.9573 23.4441 20.4445 24.7888 17.2537 28.093C17.5336 28.4907 17.7287 28.9569 17.8058 29.4678C18.0744 31.2462 16.8274 32.903 15.0222 33.1672C13.2168 33.4314 11.5377 32.203 11.2691 30.4246C11.0007 28.6462 12.2449 26.9896 14.0502 26.7254C14.7834 26.6182 15.497 26.7582 16.1031 27.08C19.566 23.4971 23.5088 21.9201 27.269 21.9062ZM14.5049 27.2464C13.817 27.2465 13.1888 27.502 12.7101 27.9235L12.7103 27.9238C12.7058 27.9276 12.7015 27.9315 12.6974 27.9357L12.644 27.984C12.3809 28.2297 12.1693 28.5258 12.0215 28.8545C11.8638 29.2051 11.7824 29.5854 11.7826 29.9699C11.7827 30.7753 12.1331 31.4988 12.6894 31.9965L12.7211 32.0249C13.2151 32.4562 13.849 32.6933 14.5049 32.6921C15.1659 32.6931 15.8045 32.4526 16.3002 32.0153L16.3 32.015C16.5913 31.7609 16.8251 31.4474 16.9853 31.0956C17.136 30.7645 17.2182 30.4066 17.2276 30.0435L17.2286 29.9708V29.9214L17.2274 29.9207C17.2149 29.1839 16.9094 28.5186 16.4223 28.0365L16.3204 27.9406L16.3183 27.939L16.3157 27.9367C16.3087 27.9298 16.3013 27.9235 16.2934 27.9177C15.8297 27.511 15.2418 27.2758 14.628 27.249L14.5049 27.2464ZM38.2748 27.7063C38.0245 27.6804 37.7945 27.9281 37.7603 28.2585C37.7262 28.5895 37.9007 28.8783 38.151 28.9042C38.4005 28.9299 38.6308 28.683 38.665 28.352C38.6991 28.0215 38.5242 27.7321 38.2748 27.7063Z" fill="url(#paint84_linear_97_306)"/>
<path fill-rule="evenodd" clip-rule="evenodd" d="M29.3819 24.7981C31.0237 24.9077 32.6021 25.7002 33.7066 27.1578C34.2569 27.8801 34.687 28.7568 34.9377 29.7118C35.1895 30.6643 35.2527 31.705 35.0702 32.6539C34.9135 33.4769 34.5523 34.1887 34.0591 34.7169C34.0619 34.5328 34.0523 34.3525 34.0281 34.1903C33.9646 33.7752 33.8481 33.4243 33.7136 33.1171C33.4498 32.5359 33.1712 32.0498 32.8523 31.5681C32.2193 30.619 31.4737 29.8203 30.6625 29.1751C29.0375 27.8861 27.155 27.1894 25.2316 27.1206C25.1045 27.116 24.9771 27.1144 24.8495 27.1156C25.4592 26.68 26.0997 26.2833 26.7658 25.9297C27.5606 25.4339 28.4388 25.0476 29.3819 24.7953V24.7981ZM32.1381 27.0812C31.9936 26.7568 31.6841 26.5786 31.4467 26.6842C31.2098 26.7897 31.1354 27.1389 31.2798 27.4635C31.4244 27.7881 31.7334 27.9656 31.9703 27.8603C32.2077 27.7545 32.2826 27.4057 32.1381 27.0812Z" fill="url(#paint85_linear_97_306)"/>
<path d="M30.4909 2.21718C31.6414 1.9299 32.6097 1.8821 33.6763 2.35485C34.6136 2.77028 35.5735 3.56786 36.8148 4.77262L37.0669 5.01899L37.0707 5.02284C38.9922 6.94193 40.2072 7.95479 41.507 8.52302C42.7981 9.08748 44.2434 9.24369 46.7089 9.26405H46.7125C48.2841 9.28456 49.5771 9.36115 50.6218 9.58386C51.6768 9.80877 52.539 10.195 53.1907 10.8781C53.8386 11.5572 54.2044 12.4526 54.422 13.549C54.6387 14.6403 54.7208 15.9972 54.7516 17.658V17.6586C54.792 19.9413 54.9954 21.3815 55.5711 22.6465C56.149 23.9163 57.1351 25.0825 58.9005 26.7444L58.9013 26.7451L58.902 26.7458C60.8556 28.5953 62.0673 30.1801 61.9971 31.9848C61.9621 32.8837 61.6112 33.7506 61.0298 34.64C60.4507 35.5257 59.6148 36.476 58.5502 37.5496L58.5478 37.552C56.8715 39.2262 55.9102 40.462 55.3467 41.834C54.7826 43.2076 54.5881 44.7887 54.5881 47.212C54.5881 48.6631 54.5222 49.8688 54.3081 50.8521C54.0914 51.8472 53.7121 52.6654 53.0502 53.2875C52.394 53.9044 51.5331 54.2595 50.4867 54.4735C49.4448 54.6865 48.1577 54.7713 46.5945 54.8021L46.5917 54.8022H46.5889C44.8663 54.8227 43.8644 54.8746 43.0732 55.0289C42.3096 55.1778 41.7173 55.4273 40.8262 55.9019L40.8178 55.9064L40.8092 55.9107C39.7707 56.4293 38.1265 57.7897 37.2328 58.8375C35.5354 60.8424 33.9172 62.055 32.0508 61.9981C30.2275 61.9425 28.4516 60.6734 26.4233 58.5862C24.7985 56.9236 23.4924 55.9334 22.0499 55.3645C20.6061 54.7952 18.9537 54.6196 16.5839 54.7198L16.5813 54.72H16.5787C14.2608 54.8013 13.0973 54.7014 12.0247 53.9897C10.9506 53.289 10.2095 52.5779 9.77219 51.4029C9.3603 50.2962 9.24075 48.8295 9.20004 46.6946V46.6918L9.19994 46.6889C9.17933 44.8574 9.13694 43.8764 8.9795 43.1086C8.82864 42.373 8.56688 41.8086 8.0221 40.8211L8.01967 40.8168L8.01734 40.8124C7.40747 39.6703 6.11758 38.1091 5.20702 37.3512C3.13864 35.6634 2 33.9266 2 32.0535C2 31.1462 2.19929 30.3588 2.74376 29.484C3.26538 28.6459 4.09992 27.7348 5.33081 26.5465C6.99145 24.9281 7.90387 23.8076 8.43784 22.5295C8.97442 21.2452 9.15936 19.7293 9.20004 17.251V17.2485L9.20014 17.246C9.2808 13.7819 9.38707 12.6807 10.2779 11.445C10.5794 11.0256 10.8883 10.6521 11.2717 10.3474C11.6643 10.0353 12.1052 9.81855 12.6466 9.66834C13.6134 9.40012 14.9613 9.33309 17.0246 9.30913L17.4469 9.30487C19.1958 9.28429 20.1492 9.24216 20.9042 9.0895C21.6284 8.94307 22.1954 8.68939 23.158 8.16877C24.2558 7.56364 25.9871 6.11397 26.9592 4.94889L26.9654 4.94149L26.9716 4.9344C27.5839 4.23859 28.1974 3.63432 28.7765 3.17155C29.3418 2.71987 29.9306 2.35708 30.4909 2.21718ZM36.0164 8.53538C33.5883 6.1465 32.6823 5.74828 30.7978 6.21881C30.073 6.39979 29.0582 7.23234 28.0073 8.42679C27.1012 9.51264 25.5067 10.8519 24.4557 11.431C22.7162 12.3721 22.1726 12.4807 19.0922 12.5169C14.9608 12.553 14.2722 12.7341 13.2575 14.1457C12.6052 15.0506 12.4964 15.8107 12.4239 18.9235C12.3514 23.3393 11.7716 24.7148 8.79989 27.6104C6.62547 29.7098 6.0456 30.651 6.0456 32.0264C6.04561 33.4018 6.87917 34.7772 8.65493 36.225C9.52469 36.9489 10.7206 38.3968 11.3004 39.4826C12.2789 41.2562 12.3876 41.763 12.4239 44.9844C12.4964 48.7849 12.8588 49.7623 14.6346 50.9205C15.3956 51.4272 16.2292 51.5358 18.2948 51.4634C22.5712 51.2824 24.5645 52.0788 27.4999 55.083C31.0877 58.7749 33.1534 58.8473 36.1251 55.3364C36.9586 54.3591 38.4808 53.0922 39.4955 52.5855C41.1263 51.7168 41.8511 51.572 44.8953 51.5358C50.4038 51.4272 51.3461 50.5585 51.3461 45.455C51.3461 41.1115 52.0347 39.4464 55.0426 36.4422C58.7754 32.6779 58.8479 31.0852 55.3688 27.7915C52.2159 24.8234 51.5636 23.3755 51.4911 19.2854C51.3824 13.4218 50.5488 12.5531 45.004 12.4807C40.6189 12.4445 39.423 11.9377 36.0164 8.53538Z" fill="url(#paint86_linear_97_306)"/>
<path d="M22.1927 40.2511C22.1103 40.5186 21.892 40.6933 21.6378 40.6933C21.5805 40.6933 21.534 40.7397 21.534 40.8003C21.534 40.8609 21.5984 40.9073 21.6807 40.9073C21.9421 40.9073 22.0996 41.0463 22.1784 41.3423C22.2714 41.6775 22.4039 41.6775 22.4719 41.3423C22.5292 41.0642 22.5364 41.057 22.8586 40.9465C23.0018 40.9001 23.1163 40.8324 23.1163 40.8003C23.1163 40.7682 23.0018 40.7004 22.8586 40.6541C22.5364 40.5435 22.5292 40.5364 22.4719 40.2583C22.4075 39.9302 22.2893 39.9302 22.1927 40.2511Z" fill="#FFB3B3"/>
<path d="M47.8777 33.6389C47.8392 33.7593 47.8968 34.071 48.0151 34.3434C48.2754 34.9427 47.6616 36.1547 46.9422 36.4671C46.2337 36.7748 46.6006 37.1723 47.4801 37.0494C48.4031 36.9076 48.9252 37.0953 49.4573 37.7838C50.0492 38.5499 50.6045 38.516 50.2733 37.7532C49.9562 37.0232 50.4635 35.715 51.1829 35.4026C51.5317 35.2511 51.6867 35.0413 51.5968 34.8343C51.5069 34.6272 51.2478 34.5973 50.899 34.7488C50.1904 35.0565 48.8773 34.5388 48.5698 33.8305C48.3379 33.2966 48.0551 33.2122 47.8777 33.6389Z" fill="#FEF08A"/>
<path d="M15.9176 34.5355C15.8328 34.5919 15.7122 34.8171 15.6495 35.0482C15.5116 35.5565 14.5156 36.0106 13.906 35.8452C13.3056 35.6822 13.3363 36.1173 13.9512 36.4826C14.603 36.8579 14.8368 37.2389 14.825 37.9403C14.8116 38.7205 15.1779 38.9787 15.3534 38.3317C15.5215 37.7125 16.4988 37.1442 17.1085 37.3097C17.404 37.3899 17.6071 37.3358 17.6548 37.1602C17.7024 36.9846 17.5545 36.8353 17.259 36.7551C16.6586 36.5922 16.0934 35.6053 16.2564 35.0045C16.3793 34.5517 16.2439 34.3561 15.9176 34.5355Z" fill="#A5B4FC"/>
<path d="M30.3126 49.2631C30.2445 49.341 30.1861 49.5939 30.1861 49.8371C30.1861 50.3721 29.3297 51.0822 28.6875 51.0822C28.055 51.0822 28.2009 51.5005 28.9016 51.6951C29.6411 51.8896 29.972 52.2009 30.1471 52.8916C30.3418 53.6601 30.7699 53.8157 30.7699 53.1348C30.7699 52.483 31.5776 51.6659 32.2199 51.6659C32.5313 51.6659 32.7162 51.5589 32.7162 51.3741C32.7162 51.1892 32.5313 51.0822 32.2199 51.0822C31.5874 51.0822 30.7699 50.2651 30.7699 49.6328C30.7699 49.1561 30.585 49.0005 30.3126 49.2631Z" fill="#FDBA74"/>
<path d="M32.0503 14.3995C31.6668 15.3185 30.3246 16.1898 29.4872 16.0437C29.1984 15.9934 28.9201 16.139 28.8771 16.3855C28.8341 16.6319 29.0611 16.8657 29.3932 16.9236C30.4472 17.1075 30.9864 17.7692 31.0966 19.0134C31.2318 20.4561 31.575 20.6206 32.0109 19.4866C32.4247 18.3936 33.5225 17.644 34.4321 17.8026C34.8797 17.8807 35.1818 17.7691 35.2299 17.4936C35.2729 17.2472 35.1181 17.026 34.887 16.9857C33.8619 16.8069 33.1051 15.9429 32.9746 14.8147C32.803 13.4104 32.515 13.2705 32.0503 14.3995Z" fill="#BFE3FF"/>
<path d="M40.2749 42.6857C40.2349 42.7314 40.2006 42.8742 40.2006 43.0114C40.2006 43.3085 39.9265 43.5714 39.4582 43.7199C39.0356 43.8571 39.0528 44.0056 39.4868 44.1199C39.8923 44.2285 40.1664 44.5142 40.2178 44.8856C40.2749 45.2799 40.5433 45.337 40.5433 44.9599C40.5433 44.5771 41.0173 44.0971 41.3942 44.0971C41.8282 44.0971 41.754 43.7942 41.2971 43.7085C40.8403 43.6228 40.6861 43.4628 40.589 42.9714C40.5147 42.6171 40.4291 42.5371 40.2749 42.6857Z" fill="#A5B4FC"/>
<path d="M41.1435 24.9698C40.9848 25.2848 40.4907 25.5437 40.1953 25.4608C40.0952 25.4327 39.9916 25.4744 39.9675 25.5602C39.9434 25.6461 40.0151 25.737 40.1303 25.7694C40.4908 25.8706 40.6622 26.1258 40.6661 26.5736C40.6773 27.1107 40.7732 27.154 40.9859 26.7234C41.1652 26.3542 41.5472 26.1673 41.8977 26.2658C42.0379 26.3051 42.1451 26.2699 42.1706 26.179C42.1947 26.0931 42.128 26.0036 42.0279 25.9754C41.7375 25.8939 41.4419 25.4077 41.4604 25.0533C41.4844 24.6406 41.3292 24.597 41.1435 24.9698Z" fill="#FDA4AF"/>
<path d="M20.5262 18.7475C20.5078 18.8326 20.564 19.0356 20.6592 19.2076C20.8654 19.5803 20.704 20.1002 20.2198 20.6116C19.785 21.0769 19.9096 21.2514 20.5333 21.0935C21.1172 20.9482 21.6593 21.1163 21.9816 21.5465C22.3269 22.0013 22.7032 21.8867 22.4414 21.4137C22.1757 20.9335 22.437 20.0024 22.9098 19.7408C23.4685 19.4316 23.1508 19.1112 22.5 19.3216C21.9471 19.5059 21.2238 19.2134 20.9342 18.6902C20.8073 18.4609 20.6069 18.4875 20.5262 18.7475Z" fill="#A7F3D0"/>
<defs>
<linearGradient id="paint0_linear_97_306" x1="2" y1="32.2609" x2="58.8696" y2="32.2609" gradientUnits="userSpaceOnUse">
<stop stop-color="#F8BBD0"/>
<stop offset="1" stop-color="#D6C4FF"/>
</linearGradient>
<linearGradient id="paint1_linear_97_306" x1="2" y1="32.2609" x2="58.8696" y2="32.2609" gradientUnits="userSpaceOnUse">
<stop stop-color="#F8BBD0"/>
<stop offset="1" stop-color="#D6C4FF"/>
</linearGradient>
<linearGradient id="paint2_linear_97_306" x1="2" y1="32.2609" x2="58.8696" y2="32.2609" gradientUnits="userSpaceOnUse">
<stop stop-color="#F8BBD0"/>
<stop offset="1" stop-color="#D6C4FF"/>
</linearGradient>
<linearGradient id="paint3_linear_97_306" x1="2" y1="32.2609" x2="58.8696" y2="32.2609" gradientUnits="userSpaceOnUse">
<stop stop-color="#F8BBD0"/>
<stop offset="1" stop-color="#D6C4FF"/>
</linearGradient>
<linearGradient id="paint4_linear_97_306" x1="2" y1="32.2609" x2="58.8696" y2="32.2609" gradientUnits="userSpaceOnUse">
<stop stop-color="#F8BBD0"/>
<stop offset="1" stop-color="#D6C4FF"/>
</linearGradient>
<linearGradient id="paint5_linear_97_306" x1="2" y1="32.2609" x2="58.8696" y2="32.2609" gradientUnits="userSpaceOnUse">
<stop stop-color="#F8BBD0"/>
<stop offset="1" stop-color="#D6C4FF"/>
</linearGradient>
<linearGradient id="paint6_linear_97_306" x1="2" y1="32.2609" x2="58.8696" y2="32.2609" gradientUnits="userSpaceOnUse">
<stop stop-color="#F8BBD0"/>
<stop offset="1" stop-color="#D6C4FF"/>
</linearGradient>
<linearGradient id="paint7_linear_97_306" x1="2" y1="32.2609" x2="58.8696" y2="32.2609" gradientUnits="userSpaceOnUse">
<stop stop-color="#F8BBD0"/>
<stop offset="1" stop-color="#D6C4FF"/>
</linearGradient>
<linearGradient id="paint8_linear_97_306" x1="2" y1="32.2609" x2="58.8696" y2="32.2609" gradientUnits="userSpaceOnUse">
<stop stop-color="#F8BBD0"/>
<stop offset="1" stop-color="#D6C4FF"/>
</linearGradient>
<linearGradient id="paint9_linear_97_306" x1="2" y1="32.2609" x2="58.8696" y2="32.2609" gradientUnits="userSpaceOnUse">
<stop stop-color="#F8BBD0"/>
<stop offset="1" stop-color="#D6C4FF"/>
</linearGradient>
<linearGradient id="paint10_linear_97_306" x1="2" y1="32.2609" x2="58.8696" y2="32.2609" gradientUnits="userSpaceOnUse">
<stop stop-color="#F8BBD0"/>
<stop offset="1" stop-color="#D6C4FF"/>
</linearGradient>
<linearGradient id="paint11_linear_97_306" x1="2" y1="32.2609" x2="58.8696" y2="32.2609" gradientUnits="userSpaceOnUse">
<stop stop-color="#F8BBD0"/>
<stop offset="1" stop-color="#D6C4FF"/>
</linearGradient>
<linearGradient id="paint12_linear_97_306" x1="2" y1="32.2609" x2="58.8696" y2="32.2609" gradientUnits="userSpaceOnUse">
<stop stop-color="#F8BBD0"/>
<stop offset="1" stop-color="#D6C4FF"/>
</linearGradient>
<linearGradient id="paint13_linear_97_306" x1="2" y1="32.2609" x2="58.8696" y2="32.2609" gradientUnits="userSpaceOnUse">
<stop stop-color="#F8BBD0"/>
<stop offset="1" stop-color="#D6C4FF"/>
</linearGradient>
<linearGradient id="paint14_linear_97_306" x1="2" y1="32.2609" x2="58.8696" y2="32.2609" gradientUnits="userSpaceOnUse">
<stop stop-color="#F8BBD0"/>
<stop offset="1" stop-color="#D6C4FF"/>
</linearGradient>
<linearGradient id="paint15_linear_97_306" x1="2" y1="32.2609" x2="58.8696" y2="32.2609" gradientUnits="userSpaceOnUse">
<stop stop-color="#F8BBD0"/>
<stop offset="1" stop-color="#D6C4FF"/>
</linearGradient>
<linearGradient id="paint16_linear_97_306" x1="2" y1="32.2609" x2="58.8696" y2="32.2609" gradientUnits="userSpaceOnUse">
<stop stop-color="#F8BBD0"/>
<stop offset="1" stop-color="#D6C4FF"/>
</linearGradient>
<linearGradient id="paint17_linear_97_306" x1="2" y1="32.2609" x2="58.8696" y2="32.2609" gradientUnits="userSpaceOnUse">
<stop stop-color="#F8BBD0"/>
<stop offset="1" stop-color="#D6C4FF"/>
</linearGradient>
<linearGradient id="paint18_linear_97_306" x1="2" y1="32.2609" x2="58.8696" y2="32.2609" gradientUnits="userSpaceOnUse">
<stop stop-color="#F8BBD0"/>
<stop offset="1" stop-color="#D6C4FF"/>
</linearGradient>
<linearGradient id="paint19_linear_97_306" x1="2" y1="32.2609" x2="58.8696" y2="32.2609" gradientUnits="userSpaceOnUse">
<stop stop-color="#F8BBD0"/>
<stop offset="1" stop-color="#D6C4FF"/>
</linearGradient>
<linearGradient id="paint20_linear_97_306" x1="2" y1="32.2609" x2="58.8696" y2="32.2609" gradientUnits="userSpaceOnUse">
<stop stop-color="#F8BBD0"/>
<stop offset="1" stop-color="#D6C4FF"/>
</linearGradient>
<linearGradient id="paint21_linear_97_306" x1="2" y1="32.2609" x2="58.8696" y2="32.2609" gradientUnits="userSpaceOnUse">
<stop stop-color="#F8BBD0"/>
<stop offset="1" stop-color="#D6C4FF"/>
</linearGradient>
<linearGradient id="paint22_linear_97_306" x1="2" y1="32.2609" x2="58.8696" y2="32.2609" gradientUnits="userSpaceOnUse">
<stop stop-color="#F8BBD0"/>
<stop offset="1" stop-color="#D6C4FF"/>
</linearGradient>
<linearGradient id="paint23_linear_97_306" x1="2" y1="32.2609" x2="58.8696" y2="32.2609" gradientUnits="userSpaceOnUse">
<stop stop-color="#F8BBD0"/>
<stop offset="1" stop-color="#D6C4FF"/>
</linearGradient>
<linearGradient id="paint24_linear_97_306" x1="2" y1="32.2609" x2="58.8696" y2="32.2609" gradientUnits="userSpaceOnUse">
<stop stop-color="#F8BBD0"/>
<stop offset="1" stop-color="#D6C4FF"/>
</linearGradient>
<linearGradient id="paint25_linear_97_306" x1="2" y1="32.2609" x2="58.8696" y2="32.2609" gradientUnits="userSpaceOnUse">
<stop stop-color="#F8BBD0"/>
<stop offset="1" stop-color="#D6C4FF"/>
</linearGradient>
<linearGradient id="paint26_linear_97_306" x1="2" y1="32.2609" x2="58.8696" y2="32.2609" gradientUnits="userSpaceOnUse">
<stop stop-color="#F8BBD0"/>
<stop offset="1" stop-color="#D6C4FF"/>
</linearGradient>
<linearGradient id="paint27_linear_97_306" x1="2" y1="32.2609" x2="58.8696" y2="32.2609" gradientUnits="userSpaceOnUse">
<stop stop-color="#F8BBD0"/>
<stop offset="1" stop-color="#D6C4FF"/>
</linearGradient>
<linearGradient id="paint28_linear_97_306" x1="2" y1="32.2609" x2="58.8696" y2="32.2609" gradientUnits="userSpaceOnUse">
<stop stop-color="#F8BBD0"/>
<stop offset="1" stop-color="#D6C4FF"/>
</linearGradient>
<linearGradient id="paint29_linear_97_306" x1="2" y1="32.2609" x2="58.8696" y2="32.2609" gradientUnits="userSpaceOnUse">
<stop stop-color="#F8BBD0"/>
<stop offset="1" stop-color="#D6C4FF"/>
</linearGradient>
<linearGradient id="paint30_linear_97_306" x1="2" y1="32.2609" x2="58.8696" y2="32.2609" gradientUnits="userSpaceOnUse">
<stop stop-color="#F8BBD0"/>
<stop offset="1" stop-color="#D6C4FF"/>
</linearGradient>
<linearGradient id="paint31_linear_97_306" x1="2" y1="32.2609" x2="58.8696" y2="32.2609" gradientUnits="userSpaceOnUse">
<stop stop-color="#F8BBD0"/>
<stop offset="1" stop-color="#D6C4FF"/>
</linearGradient>
<linearGradient id="paint32_linear_97_306" x1="2" y1="32.2609" x2="58.8696" y2="32.2609" gradientUnits="userSpaceOnUse">
<stop stop-color="#F8BBD0"/>
<stop offset="1" stop-color="#D6C4FF"/>
</linearGradient>
<linearGradient id="paint33_linear_97_306" x1="2" y1="32.2609" x2="58.8696" y2="32.2609" gradientUnits="userSpaceOnUse">
<stop stop-color="#F8BBD0"/>
<stop offset="1" stop-color="#D6C4FF"/>
</linearGradient>
<linearGradient id="paint34_linear_97_306" x1="2" y1="32.2609" x2="58.8696" y2="32.2609" gradientUnits="userSpaceOnUse">
<stop stop-color="#F8BBD0"/>
<stop offset="1" stop-color="#D6C4FF"/>
</linearGradient>
<linearGradient id="paint35_linear_97_306" x1="2" y1="32.2609" x2="58.8696" y2="32.2609" gradientUnits="userSpaceOnUse">
<stop stop-color="#F8BBD0"/>
<stop offset="1" stop-color="#D6C4FF"/>
</linearGradient>
<linearGradient id="paint36_linear_97_306" x1="2" y1="32.2609" x2="58.8696" y2="32.2609" gradientUnits="userSpaceOnUse">
<stop stop-color="#F8BBD0"/>
<stop offset="1" stop-color="#D6C4FF"/>
</linearGradient>
<linearGradient id="paint37_linear_97_306" x1="2" y1="32.2609" x2="58.8696" y2="32.2609" gradientUnits="userSpaceOnUse">
<stop stop-color="#F8BBD0"/>
<stop offset="1" stop-color="#D6C4FF"/>
</linearGradient>
<linearGradient id="paint38_linear_97_306" x1="2" y1="32.2609" x2="58.8696" y2="32.2609" gradientUnits="userSpaceOnUse">
<stop stop-color="#F8BBD0"/>
<stop offset="1" stop-color="#D6C4FF"/>
</linearGradient>
<linearGradient id="paint39_linear_97_306" x1="2" y1="32.2609" x2="58.8696" y2="32.2609" gradientUnits="userSpaceOnUse">
<stop stop-color="#F8BBD0"/>
<stop offset="1" stop-color="#D6C4FF"/>
</linearGradient>
<linearGradient id="paint40_linear_97_306" x1="2" y1="32.2609" x2="58.8696" y2="32.2609" gradientUnits="userSpaceOnUse">
<stop stop-color="#F8BBD0"/>
<stop offset="1" stop-color="#D6C4FF"/>
</linearGradient>
<linearGradient id="paint41_linear_97_306" x1="2" y1="32.2609" x2="58.8696" y2="32.2609" gradientUnits="userSpaceOnUse">
<stop stop-color="#F8BBD0"/>
<stop offset="1" stop-color="#D6C4FF"/>
</linearGradient>
<linearGradient id="paint42_linear_97_306" x1="2" y1="32.2609" x2="58.8696" y2="32.2609" gradientUnits="userSpaceOnUse">
<stop stop-color="#F8BBD0"/>
<stop offset="1" stop-color="#D6C4FF"/>
</linearGradient>
<linearGradient id="paint43_linear_97_306" x1="2" y1="32.2609" x2="58.8696" y2="32.2609" gradientUnits="userSpaceOnUse">
<stop stop-color="#F8BBD0"/>
<stop offset="1" stop-color="#D6C4FF"/>
</linearGradient>
<linearGradient id="paint44_linear_97_306" x1="2" y1="32.2609" x2="58.8696" y2="32.2609" gradientUnits="userSpaceOnUse">
<stop stop-color="#F8BBD0"/>
<stop offset="1" stop-color="#D6C4FF"/>
</linearGradient>
<linearGradient id="paint45_linear_97_306" x1="2" y1="32.2609" x2="58.8696" y2="32.2609" gradientUnits="userSpaceOnUse">
<stop stop-color="#F8BBD0"/>
<stop offset="1" stop-color="#D6C4FF"/>
</linearGradient>
<linearGradient id="paint46_linear_97_306" x1="2" y1="32.2609" x2="58.8696" y2="32.2609" gradientUnits="userSpaceOnUse">
<stop stop-color="#F8BBD0"/>
<stop offset="1" stop-color="#D6C4FF"/>
</linearGradient>
<linearGradient id="paint47_linear_97_306" x1="2" y1="32.2609" x2="58.8696" y2="32.2609" gradientUnits="userSpaceOnUse">
<stop stop-color="#F8BBD0"/>
<stop offset="1" stop-color="#D6C4FF"/>
</linearGradient>
<linearGradient id="paint48_linear_97_306" x1="2" y1="32.2609" x2="58.8696" y2="32.2609" gradientUnits="userSpaceOnUse">
<stop stop-color="#F8BBD0"/>
<stop offset="1" stop-color="#D6C4FF"/>
</linearGradient>
<linearGradient id="paint49_linear_97_306" x1="2" y1="32.2609" x2="58.8696" y2="32.2609" gradientUnits="userSpaceOnUse">
<stop stop-color="#F8BBD0"/>
<stop offset="1" stop-color="#D6C4FF"/>
</linearGradient>
<linearGradient id="paint50_linear_97_306" x1="2" y1="32.2609" x2="58.8696" y2="32.2609" gradientUnits="userSpaceOnUse">
<stop stop-color="#F8BBD0"/>
<stop offset="1" stop-color="#D6C4FF"/>
</linearGradient>
<linearGradient id="paint51_linear_97_306" x1="2" y1="32.2609" x2="58.8696" y2="32.2609" gradientUnits="userSpaceOnUse">
<stop stop-color="#F8BBD0"/>
<stop offset="1" stop-color="#D6C4FF"/>
</linearGradient>
<linearGradient id="paint52_linear_97_306" x1="2" y1="32.2609" x2="58.8696" y2="32.2609" gradientUnits="userSpaceOnUse">
<stop stop-color="#F8BBD0"/>
<stop offset="1" stop-color="#D6C4FF"/>
</linearGradient>
<linearGradient id="paint53_linear_97_306" x1="2" y1="32.2609" x2="58.8696" y2="32.2609" gradientUnits="userSpaceOnUse">
<stop stop-color="#F8BBD0"/>
<stop offset="1" stop-color="#D6C4FF"/>
</linearGradient>
<linearGradient id="paint54_linear_97_306" x1="2" y1="32.2609" x2="58.8696" y2="32.2609" gradientUnits="userSpaceOnUse">
<stop stop-color="#F8BBD0"/>
<stop offset="1" stop-color="#D6C4FF"/>
</linearGradient>
<linearGradient id="paint55_linear_97_306" x1="2" y1="32.2609" x2="58.8696" y2="32.2609" gradientUnits="userSpaceOnUse">
<stop stop-color="#F8BBD0"/>
<stop offset="1" stop-color="#D6C4FF"/>
</linearGradient>
<linearGradient id="paint56_linear_97_306" x1="2" y1="32.2609" x2="58.8696" y2="32.2609" gradientUnits="userSpaceOnUse">
<stop stop-color="#F8BBD0"/>
<stop offset="1" stop-color="#D6C4FF"/>
</linearGradient>
<linearGradient id="paint57_linear_97_306" x1="2" y1="32.2609" x2="58.8696" y2="32.2609" gradientUnits="userSpaceOnUse">
<stop stop-color="#F8BBD0"/>
<stop offset="1" stop-color="#D6C4FF"/>
</linearGradient>
<linearGradient id="paint58_linear_97_306" x1="2" y1="32.2609" x2="58.8696" y2="32.2609" gradientUnits="userSpaceOnUse">
<stop stop-color="#F8BBD0"/>
<stop offset="1" stop-color="#D6C4FF"/>
</linearGradient>
<linearGradient id="paint59_linear_97_306" x1="2" y1="32.2609" x2="58.8696" y2="32.2609" gradientUnits="userSpaceOnUse">
<stop stop-color="#F8BBD0"/>
<stop offset="1" stop-color="#D6C4FF"/>
</linearGradient>
<linearGradient id="paint60_linear_97_306" x1="2" y1="32.2609" x2="58.8696" y2="32.2609" gradientUnits="userSpaceOnUse">
<stop stop-color="#F8BBD0"/>
<stop offset="1" stop-color="#D6C4FF"/>
</linearGradient>
<linearGradient id="paint61_linear_97_306" x1="2" y1="32.2609" x2="58.8696" y2="32.2609" gradientUnits="userSpaceOnUse">
<stop stop-color="#F8BBD0"/>
<stop offset="1" stop-color="#D6C4FF"/>
</linearGradient>
<linearGradient id="paint62_linear_97_306" x1="2" y1="32.2609" x2="58.8696" y2="32.2609" gradientUnits="userSpaceOnUse">
<stop stop-color="#F8BBD0"/>
<stop offset="1" stop-color="#D6C4FF"/>
</linearGradient>
<linearGradient id="paint63_linear_97_306" x1="2" y1="32.2609" x2="58.8696" y2="32.2609" gradientUnits="userSpaceOnUse">
<stop stop-color="#F8BBD0"/>
<stop offset="1" stop-color="#D6C4FF"/>
</linearGradient>
<linearGradient id="paint64_linear_97_306" x1="2" y1="32.2609" x2="58.8696" y2="32.2609" gradientUnits="userSpaceOnUse">
<stop stop-color="#F8BBD0"/>
<stop offset="1" stop-color="#D6C4FF"/>
</linearGradient>
<linearGradient id="paint65_linear_97_306" x1="2" y1="32.2609" x2="58.8696" y2="32.2609" gradientUnits="userSpaceOnUse">
<stop stop-color="#F8BBD0"/>
<stop offset="1" stop-color="#D6C4FF"/>
</linearGradient>
<linearGradient id="paint66_linear_97_306" x1="2" y1="32.2609" x2="58.8696" y2="32.2609" gradientUnits="userSpaceOnUse">
<stop stop-color="#F8BBD0"/>
<stop offset="1" stop-color="#D6C4FF"/>
</linearGradient>
<linearGradient id="paint67_linear_97_306" x1="2" y1="32.2609" x2="58.8696" y2="32.2609" gradientUnits="userSpaceOnUse">
<stop stop-color="#F8BBD0"/>
<stop offset="1" stop-color="#D6C4FF"/>
</linearGradient>
<linearGradient id="paint68_linear_97_306" x1="2" y1="32.2609" x2="58.8696" y2="32.2609" gradientUnits="userSpaceOnUse">
<stop stop-color="#F8BBD0"/>
<stop offset="1" stop-color="#D6C4FF"/>
</linearGradient>
<linearGradient id="paint69_linear_97_306" x1="2" y1="32.2609" x2="58.8696" y2="32.2609" gradientUnits="userSpaceOnUse">
<stop stop-color="#F8BBD0"/>
<stop offset="1" stop-color="#D6C4FF"/>
</linearGradient>
<linearGradient id="paint70_linear_97_306" x1="2" y1="32.2609" x2="58.8696" y2="32.2609" gradientUnits="userSpaceOnUse">
<stop stop-color="#F8BBD0"/>
<stop offset="1" stop-color="#D6C4FF"/>
</linearGradient>
<linearGradient id="paint71_linear_97_306" x1="2" y1="32.2609" x2="58.8696" y2="32.2609" gradientUnits="userSpaceOnUse">
<stop stop-color="#F8BBD0"/>
<stop offset="1" stop-color="#D6C4FF"/>
</linearGradient>
<linearGradient id="paint72_linear_97_306" x1="2" y1="32.2609" x2="58.8696" y2="32.2609" gradientUnits="userSpaceOnUse">
<stop stop-color="#F8BBD0"/>
<stop offset="1" stop-color="#D6C4FF"/>
</linearGradient>
<linearGradient id="paint73_linear_97_306" x1="2" y1="32.2609" x2="58.8696" y2="32.2609" gradientUnits="userSpaceOnUse">
<stop stop-color="#F8BBD0"/>
<stop offset="1" stop-color="#D6C4FF"/>
</linearGradient>
<linearGradient id="paint74_linear_97_306" x1="2" y1="32.2609" x2="58.8696" y2="32.2609" gradientUnits="userSpaceOnUse">
<stop stop-color="#F8BBD0"/>
<stop offset="1" stop-color="#D6C4FF"/>
</linearGradient>
<linearGradient id="paint75_linear_97_306" x1="2" y1="32.2609" x2="58.8696" y2="32.2609" gradientUnits="userSpaceOnUse">
<stop stop-color="#F8BBD0"/>
<stop offset="1" stop-color="#D6C4FF"/>
</linearGradient>
<linearGradient id="paint76_linear_97_306" x1="2" y1="32.2609" x2="58.8696" y2="32.2609" gradientUnits="userSpaceOnUse">
<stop stop-color="#F8BBD0"/>
<stop offset="1" stop-color="#D6C4FF"/>
</linearGradient>
<linearGradient id="paint77_linear_97_306" x1="2" y1="32.2609" x2="58.8696" y2="32.2609" gradientUnits="userSpaceOnUse">
<stop stop-color="#F8BBD0"/>
<stop offset="1" stop-color="#D6C4FF"/>
</linearGradient>
<linearGradient id="paint78_linear_97_306" x1="2" y1="32.2609" x2="58.8696" y2="32.2609" gradientUnits="userSpaceOnUse">
<stop stop-color="#F8BBD0"/>
<stop offset="1" stop-color="#D6C4FF"/>
</linearGradient>
<linearGradient id="paint79_linear_97_306" x1="2" y1="32.2609" x2="58.8696" y2="32.2609" gradientUnits="userSpaceOnUse">
<stop stop-color="#F8BBD0"/>
<stop offset="1" stop-color="#D6C4FF"/>
</linearGradient>
<linearGradient id="paint80_linear_97_306" x1="2" y1="32.2609" x2="58.8696" y2="32.2609" gradientUnits="userSpaceOnUse">
<stop stop-color="#F8BBD0"/>
<stop offset="1" stop-color="#D6C4FF"/>
</linearGradient>
<linearGradient id="paint81_linear_97_306" x1="2" y1="32.2609" x2="58.8696" y2="32.2609" gradientUnits="userSpaceOnUse">
<stop stop-color="#F8BBD0"/>
<stop offset="1" stop-color="#D6C4FF"/>
</linearGradient>
<linearGradient id="paint82_linear_97_306" x1="2" y1="32.2609" x2="58.8696" y2="32.2609" gradientUnits="userSpaceOnUse">
<stop stop-color="#F8BBD0"/>
<stop offset="1" stop-color="#D6C4FF"/>
</linearGradient>
<linearGradient id="paint83_linear_97_306" x1="2" y1="32.2609" x2="58.8696" y2="32.2609" gradientUnits="userSpaceOnUse">
<stop stop-color="#F8BBD0"/>
<stop offset="1" stop-color="#D6C4FF"/>
</linearGradient>
<linearGradient id="paint84_linear_97_306" x1="2" y1="32.2609" x2="58.8696" y2="32.2609" gradientUnits="userSpaceOnUse">
<stop stop-color="#F8BBD0"/>
<stop offset="1" stop-color="#D6C4FF"/>
</linearGradient>
<linearGradient id="paint85_linear_97_306" x1="2" y1="32.2609" x2="58.8696" y2="32.2609" gradientUnits="userSpaceOnUse">
<stop stop-color="#F8BBD0"/>
<stop offset="1" stop-color="#D6C4FF"/>
</linearGradient>
<linearGradient id="paint86_linear_97_306" x1="62" y1="32.0155" x2="2" y2="32.0155" gradientUnits="userSpaceOnUse">
<stop offset="0.1" stop-color="#F8BBD0"/>
<stop offset="0.3" stop-color="#FFF3B0"/>
<stop offset="0.6" stop-color="#A5B4FC"/>
<stop offset="0.8" stop-color="#C7DBF3"/>
<stop offset="1" stop-color="#B8F2E6"/>
</linearGradient>
</defs>
</svg>
