<svg width="799" height="250" viewBox="0 0 799 250" fill="none" xmlns="http://www.w3.org/2000/svg">
<path d="M87.6484 110.902C90.5477 110.283 93.4888 110.089 96.3857 110.295C103.653 110.808 110.739 113.732 116.673 118.753C117.879 119.776 119.024 120.908 120.123 122.103C116.753 121.308 113.44 120.971 110.013 121.03C102.918 121.167 95.4268 123.501 89.2012 129.201C87.5099 130.72 85.9497 132.489 84.5449 134.449C84.3958 130.241 84.9305 126.131 86.0625 122.241C83.2994 125.843 80.9709 129.758 79.1719 133.923C74.7257 144.221 73.4266 156.065 76.7529 168.811C77.5995 168.784 78.4576 168.807 79.3242 168.905C88.9984 169.998 95.9426 178.616 94.832 188.146C93.7208 197.676 84.9698 204.513 75.2949 203.42C65.621 202.328 58.6762 193.722 59.7871 184.191C60.5394 177.738 64.7972 172.518 70.4678 170.16C66.9078 156.189 68.2847 142.906 73.2334 131.446C76.5906 123.672 81.5528 116.733 87.6484 110.902ZM77.3877 171.757C73.7178 171.757 70.3661 173.115 67.8057 175.356C67.7695 175.384 67.7367 175.416 67.7051 175.448C66.1631 176.814 64.9287 178.493 64.084 180.371C63.2394 182.249 62.8032 184.285 62.8047 186.345L62.8105 186.748C62.9234 190.901 64.775 194.621 67.6631 197.204L67.6719 197.212C67.7137 197.257 67.7593 197.297 67.8076 197.335H67.8086C70.4582 199.659 73.8637 200.936 77.3877 200.93V200.931C80.9288 200.936 84.3505 199.646 87.0059 197.303L87.0049 197.302C88.5655 195.941 89.8178 194.262 90.6758 192.377C91.5369 190.485 91.9813 188.429 91.9795 186.351V186.143L91.9746 186.14C91.919 181.901 90.0528 178.101 87.1143 175.476L87.1055 175.468L87.0957 175.46C87.0551 175.419 87.0117 175.381 86.9648 175.348C84.3154 173.026 80.9105 171.75 77.3877 171.757ZM78.3955 194.178C79.6033 194.274 80.7438 194.534 81.8125 194.936C80.8816 196.929 79.6741 198.271 78.3955 198.738V194.178ZM76.3867 198.735C75.1081 198.269 73.9004 196.932 72.9697 194.935C74.004 194.541 75.1684 194.275 76.3867 194.178V198.735ZM83.6553 195.81C84.0551 196.04 84.4218 196.275 84.7686 196.525C84.0479 197.052 83.2736 197.5 82.458 197.859C82.9221 197.217 83.3237 196.531 83.6553 195.81ZM71.1348 195.806C71.461 196.523 71.856 197.205 72.3154 197.843C71.5071 197.485 70.7377 197.044 70.0205 196.525C70.3707 196.271 70.7454 196.029 71.1348 195.806ZM109.746 127.468C111.155 127.493 112.585 127.618 114.002 127.812C112.682 128.245 111.377 128.778 110.129 129.503C106.852 131.434 103.788 134.152 101.374 138.029C98.962 141.86 97.5641 146.889 97.5596 151.685C97.5248 156.495 98.6671 160.979 100.399 164.762C102.954 170.287 106.708 174.498 111.006 177.257C113.862 179.807 116.998 182.071 120.394 183.989C134.465 191.936 153.078 194.17 175.45 185.945C175.445 185.913 175.434 185.881 175.429 185.849C174.325 178.535 179.452 171.724 186.876 170.639C194.3 169.552 201.214 174.603 202.319 181.916C203.423 189.231 198.297 196.041 190.872 197.128C185.713 197.883 180.812 195.673 177.924 191.803C153.937 200.63 133.015 198.446 117.187 189.507C99.3615 179.439 88.1279 161.106 85.4033 141.321C85.3908 141.263 85.3786 141.203 85.3662 141.145C87.0665 138.277 89.1259 135.776 91.4502 133.812C96.8306 129.18 103.361 127.334 109.746 127.468ZM69.2529 187.346C69.3168 189.582 69.6956 191.799 70.3799 193.929C69.6767 194.317 69.0477 194.731 68.459 195.185C66.3655 193.081 65.0879 190.304 64.8545 187.346H69.2529ZM89.9277 187.346C89.6922 190.303 88.4154 193.08 86.3232 195.185C85.7159 194.714 85.0724 194.291 84.3984 193.922C85.0567 191.935 85.4617 189.685 85.5293 187.346H89.9277ZM188.901 172.621C186.09 172.621 183.523 173.665 181.566 175.388L181.567 175.389C181.549 175.404 181.531 175.421 181.514 175.438V175.438C180.337 176.479 179.396 177.761 178.752 179.193C178.108 180.626 177.774 182.18 177.775 183.751L177.779 184.059C177.865 187.227 179.279 190.065 181.482 192.036L181.491 192.044C181.528 192.083 181.568 192.119 181.611 192.151C183.63 193.914 186.221 194.884 188.902 194.879C191.604 194.883 194.214 193.899 196.24 192.111L196.239 192.11C197.43 191.072 198.386 189.791 199.04 188.354C199.697 186.91 200.036 185.342 200.035 183.756V183.549L200.03 183.546C199.974 180.332 198.553 177.451 196.322 175.458L196.313 175.45L196.307 175.445C196.275 175.414 196.241 175.384 196.204 175.357C194.183 173.589 191.588 172.616 188.902 172.621V172.62L188.901 172.621ZM83.5225 187.346C83.4532 189.289 83.1241 191.215 82.5439 193.07C81.2147 192.561 79.8164 192.256 78.3955 192.165V187.346H83.5225ZM76.3867 192.165C74.968 192.26 73.5719 192.563 72.2422 193.065C71.685 191.337 71.3341 189.38 71.2598 187.345H76.3867V192.165ZM189.743 189.771C190.59 189.846 191.393 190.027 192.147 190.303C191.477 191.708 190.629 192.657 189.743 193.027V189.771ZM188.065 193.025C187.179 192.656 186.33 191.709 185.66 190.301C186.393 190.03 187.211 189.845 188.065 189.77V193.025ZM193.686 191.031C193.924 191.171 194.146 191.314 194.357 191.464C193.92 191.775 193.458 192.049 192.975 192.28C193.243 191.883 193.481 191.466 193.686 191.031ZM184.127 191.029C184.328 191.461 184.564 191.876 184.83 192.271C184.35 192.041 183.89 191.77 183.455 191.463C183.669 191.311 183.894 191.166 184.127 191.029ZM182.666 184.588C182.72 186.243 183.002 187.882 183.503 189.46C183.01 189.735 182.565 190.027 182.146 190.346C180.621 188.791 179.683 186.757 179.492 184.588H182.666ZM198.316 184.588C198.124 186.756 197.186 188.789 195.662 190.345C195.232 190.016 194.778 189.718 194.305 189.455C194.787 187.979 195.086 186.317 195.144 184.588H198.316ZM193.465 184.588C193.408 185.998 193.17 187.394 192.756 188.742C191.788 188.38 190.774 188.159 189.743 188.086V184.588H193.465ZM188.065 188.087C187.036 188.163 186.023 188.381 185.055 188.738C184.657 187.479 184.405 186.061 184.344 184.587H188.065V188.087ZM68.457 177.498C69.0507 177.96 69.7001 178.385 70.3828 178.76C69.7242 180.747 69.3205 182.998 69.2529 185.338H64.8535C65.089 182.381 66.3648 179.603 68.457 177.498ZM82.5391 179.616C83.0964 181.345 83.4481 183.302 83.5225 185.338H78.3955V180.516C79.8139 180.421 81.2096 180.118 82.5391 179.616ZM86.3223 177.497C88.4165 179.601 89.6934 182.379 89.9268 185.338H85.5293C85.4654 183.101 85.0858 180.884 84.4014 178.754C85.0727 178.384 85.715 177.965 86.3223 177.497ZM72.2412 179.611C73.5702 180.119 74.967 180.423 76.3867 180.516V185.336H71.2607C71.3351 183.336 71.6729 181.422 72.2412 179.611ZM182.145 177.151C182.566 177.475 183.023 177.774 183.503 178.041C183.02 179.517 182.722 181.18 182.665 182.909H179.491C179.684 180.742 180.621 178.707 182.145 177.151ZM192.752 178.757C193.15 180.017 193.404 181.434 193.465 182.909H189.743V179.408C190.772 179.332 191.784 179.114 192.752 178.757ZM195.661 177.15C197.187 178.705 198.124 180.74 198.315 182.909H195.143C195.088 181.254 194.807 179.615 194.306 178.037C194.778 177.774 195.231 177.478 195.661 177.15ZM185.055 178.753C186.022 179.113 187.035 179.334 188.065 179.408V182.908H184.344C184.405 181.459 184.649 180.07 185.055 178.753ZM76.3848 178.505C75.2151 178.413 74.0649 178.158 72.9668 177.746C73.901 175.754 75.1073 174.413 76.3848 173.945V178.505ZM78.3955 173.946C79.6738 174.412 80.881 175.75 81.8115 177.746C80.7773 178.14 79.6135 178.407 78.3955 178.505V173.946ZM188.063 177.727C187.242 177.655 186.433 177.476 185.658 177.193C186.331 175.789 187.178 174.842 188.063 174.471V177.727ZM189.743 174.47C190.63 174.839 191.477 175.786 192.147 177.194C191.415 177.465 190.597 177.651 189.743 177.727V174.47ZM82.4648 174.835C83.2764 175.193 84.0479 175.638 84.7666 176.16C84.4164 176.415 84.0417 176.657 83.6523 176.88C83.3232 176.161 82.9257 175.476 82.4648 174.835ZM72.3213 174.823C71.8576 175.466 71.4573 176.152 71.126 176.873C70.7431 176.653 70.3716 176.414 70.0137 176.155C70.7334 175.629 71.5069 175.183 72.3213 174.823ZM192.977 175.223C193.459 175.453 193.921 175.725 194.357 176.035C194.143 176.187 193.917 176.332 193.684 176.469C193.48 176.035 193.243 175.619 192.977 175.223ZM184.832 175.215C184.564 175.612 184.327 176.03 184.122 176.465C183.892 176.33 183.667 176.185 183.449 176.031C183.886 175.72 184.349 175.446 184.832 175.215ZM106.695 139.881C106.764 141.36 107.054 142.667 107.403 143.824C108.305 146.569 109.559 148.674 110.943 150.566C113.733 154.286 116.982 156.933 120.334 159.127C127.073 163.433 134.32 165.955 141.768 167.075C143.484 167.321 145.215 167.484 146.957 167.544C144.285 168.583 141.539 169.454 138.742 170.148C136.146 171.104 133.408 171.815 130.557 172.232C123.098 173.323 115.817 172.315 109.324 169.662C107.211 167.452 105.424 164.772 104.13 161.724C102.782 158.557 102.022 154.978 102.144 151.48C102.248 147.988 103.277 144.653 105.058 141.978C105.546 141.228 106.102 140.537 106.695 139.881ZM119.126 162.431C117.801 161.861 116.11 162.824 115.354 164.579C114.597 166.339 115.061 168.227 116.386 168.797C117.712 169.368 119.403 168.407 120.16 166.647C120.916 164.892 120.452 163.002 119.126 162.431ZM167.977 47.0146C177.524 47.0539 185.881 53.9557 187.329 63.5439C188.487 71.2107 184.908 78.4894 178.766 82.5176C182.449 91.4502 184.457 99.9607 185.04 107.912C188.262 109.053 190.764 111.869 191.304 115.438C192.055 120.415 188.719 125.057 183.787 126.079C182.508 131.808 180.405 137.101 177.62 141.896C173.316 149.305 167.437 155.491 160.561 160.301C158.169 161.334 155.595 161.864 153.03 162.087C149.538 162.381 146.004 162.117 142.533 161.486C135.595 160.191 128.784 157.51 122.753 153.355C121.157 152.239 119.621 150.992 118.201 149.619C120.519 150.415 122.842 150.874 125.201 151.183C129.127 151.619 133.121 151.292 137.028 150.247C144.817 148.142 152.371 143.243 158.131 135.493C160.459 132.343 162.466 128.669 163.84 124.594C164.039 125.487 164.21 126.393 164.349 127.312C165.77 136.723 163.695 145.854 159.089 153.428C164.255 149.4 168.679 144.466 172.006 138.738C174.386 134.64 176.228 130.124 177.395 125.217C174.752 123.866 172.78 121.334 172.308 118.212C171.62 113.653 174.358 109.372 178.614 107.9C178.039 100.855 176.204 93.2469 172.858 85.1211C172.18 85.2945 171.484 85.4425 170.774 85.5469C160.034 87.1177 150.027 79.8102 148.43 69.2295C146.832 58.6493 154.245 48.7971 164.985 47.2256C165.992 47.0783 166.989 47.0093 167.977 47.0127V47.0146ZM150.603 151.982C149.562 151.875 148.604 152.907 148.461 154.286C148.319 155.661 149.046 156.867 150.087 156.975C151.128 157.082 152.086 156.051 152.229 154.676C152.371 153.296 151.644 152.09 150.603 151.982ZM92.9268 151.133C91.7391 151.01 90.6415 152.188 90.4785 153.764C90.316 155.338 91.15 156.715 92.3379 156.838C93.5276 156.961 94.6245 155.783 94.7871 154.209C94.9495 152.633 94.1164 151.256 92.9268 151.133ZM159.264 144.904C158.471 144.822 157.739 145.608 157.631 146.657C157.523 147.707 158.079 148.627 158.871 148.709C159.664 148.791 160.394 148.003 160.502 146.953C160.61 145.903 160.056 144.986 159.264 144.904ZM105.286 82.9414C122.559 82.8785 138.697 90.5763 150.32 102.745C155.12 106.677 159.007 111.713 161.54 117.534C161.382 118.472 161.18 119.403 160.928 120.318C159.776 124.529 157.718 128.392 155.188 131.639C150.097 138.162 143.287 142.332 136.388 143.921C135.418 144.147 134.444 144.306 133.472 144.429C134.126 143.938 134.782 143.455 135.407 142.89C139.013 139.611 141.668 134.331 142.548 128.863C143.469 123.387 142.941 117.916 141.559 113.124C140.172 108.309 137.936 104.084 135.171 100.666C129.765 93.943 122.386 90.5671 115.031 90.1963C111.851 89.5966 108.603 89.2875 105.318 89.2998C91.4876 89.3506 76.8518 94.9526 63.5566 108.72C64.7232 110.377 65.535 112.32 65.8564 114.449C66.9754 121.859 61.7797 128.762 54.2578 129.862C46.7357 130.963 39.7392 125.845 38.6201 118.436C37.5016 111.026 42.6869 104.123 50.209 103.022C53.2636 102.576 56.2364 103.158 58.7617 104.499C73.1904 89.5702 89.6189 82.9993 105.286 82.9414ZM114.091 94.9932C120.932 95.4495 127.508 98.7513 132.11 104.825C134.403 107.834 136.195 111.487 137.239 115.466C138.288 119.435 138.553 123.771 137.792 127.725C137.139 131.154 135.634 134.12 133.579 136.32C133.591 135.553 133.55 134.802 133.449 134.126C133.184 132.396 132.699 130.934 132.139 129.654C131.04 127.233 129.88 125.207 128.551 123.2C125.914 119.246 122.807 115.918 119.427 113.229C112.656 107.859 104.812 104.956 96.7979 104.669C96.2685 104.65 95.7377 104.643 95.2061 104.648C97.7466 102.833 100.415 101.179 103.19 99.7061C106.502 97.6404 110.161 96.0314 114.091 94.9805V94.9932ZM52.1035 105.194C49.2374 105.194 46.6196 106.259 44.625 108.016L44.626 108.017C44.6074 108.032 44.5893 108.049 44.5723 108.066L44.3496 108.268C43.2537 109.291 42.3718 110.525 41.7559 111.895C41.0989 113.355 40.7595 114.94 40.7607 116.542C40.761 119.898 42.2211 122.913 44.5391 124.986V124.987L44.6709 125.104C46.7292 126.902 49.3705 127.889 52.1035 127.885C54.8576 127.889 57.5187 126.886 59.584 125.064L59.583 125.063C60.7968 124.005 61.7712 122.698 62.4385 121.232C63.0663 119.853 63.4089 118.362 63.4482 116.849L63.4521 116.546V116.34L63.4473 116.337C63.395 113.267 62.1224 110.495 60.0928 108.486L59.668 108.087L59.6592 108.08L59.6484 108.07C59.6193 108.042 59.5885 108.015 59.5557 107.991C57.6233 106.297 55.1738 105.317 52.6162 105.205L52.1035 105.194ZM52.9551 122.674C53.8244 122.75 54.6483 122.936 55.4229 123.22C54.7362 124.662 53.8656 125.635 52.9551 126.012V122.674ZM51.2559 126.01C50.3453 125.634 49.4745 124.664 48.7881 123.219C49.5394 122.941 50.3789 122.751 51.2559 122.674V126.01ZM56.9795 123.958C57.228 124.103 57.459 124.253 57.6797 124.409C57.2255 124.734 56.7434 125.016 56.2402 125.256C56.52 124.844 56.7673 124.41 56.9795 123.958ZM47.2363 123.956C47.4455 124.405 47.6906 124.836 47.9678 125.246C47.468 125.008 46.9887 124.728 46.5361 124.408C46.7588 124.25 46.9936 124.098 47.2363 123.956ZM181.771 108.651C179.775 108.651 177.955 109.415 176.568 110.67L176.569 110.671C176.557 110.682 176.544 110.694 176.532 110.706L176.531 110.705C175.698 111.464 175.031 112.398 174.575 113.44C174.119 114.483 173.884 115.614 173.885 116.757C173.885 119.001 174.775 121.034 176.214 122.501L176.509 122.786C176.539 122.818 176.571 122.848 176.605 122.875C178.035 124.157 179.87 124.862 181.771 124.858C183.682 124.861 185.527 124.147 186.961 122.852L186.962 122.853L186.97 122.846L186.969 122.845C186.97 122.843 186.973 122.842 186.975 122.841L186.974 122.84C187.817 122.083 188.494 121.151 188.957 120.104C189.364 119.185 189.599 118.197 189.65 117.191L189.661 116.76V116.558L189.653 116.554C189.603 114.387 188.726 112.429 187.328 111.006L187.033 110.721L187.024 110.713C187.004 110.692 186.982 110.673 186.959 110.655C185.615 109.442 183.91 108.739 182.128 108.659L181.771 108.651ZM182.457 121.19C182.966 121.245 183.451 121.36 183.911 121.524C183.489 122.404 182.979 123.003 182.457 123.285V121.19ZM181.088 123.283C180.565 123.002 180.054 122.404 179.632 121.522C180.081 121.361 180.574 121.246 181.088 121.19V123.283ZM45.748 117.389C45.803 119.08 46.0912 120.755 46.6035 122.367C46.0976 122.65 45.6407 122.95 45.2119 123.276C43.6512 121.688 42.6927 119.607 42.499 117.389H45.748ZM61.7129 117.389C61.5176 119.606 60.5586 121.686 58.999 123.275C58.5577 122.937 58.0926 122.632 57.6064 122.362C58.0998 120.855 58.405 119.155 58.4629 117.389H61.7129ZM185.429 122.31C185.253 122.433 185.072 122.549 184.885 122.654C184.984 122.485 185.076 122.311 185.161 122.134C185.253 122.191 185.343 122.25 185.429 122.31ZM178.386 122.132C178.469 122.308 178.56 122.48 178.658 122.647C178.473 122.544 178.294 122.43 178.119 122.309C178.206 122.248 178.295 122.189 178.386 122.132ZM56.7646 117.389C56.7066 118.832 56.4624 120.261 56.0381 121.641C55.0481 121.27 54.0099 121.044 52.9551 120.97V117.389H56.7646ZM51.2559 117.388V120.97C50.2028 121.047 49.1658 121.271 48.1758 121.637C47.7681 120.348 47.5082 118.897 47.4463 117.388H51.2559ZM177.311 117.449C177.355 118.596 177.545 119.731 177.877 120.826C177.581 121 177.308 121.181 177.051 121.378C176.057 120.307 175.436 118.925 175.289 117.449H177.311ZM188.256 117.449C188.107 118.924 187.486 120.305 186.493 121.377C186.229 121.174 185.953 120.99 185.666 120.822C185.986 119.794 186.187 118.644 186.233 117.449H188.256ZM184.864 117.449C184.82 118.391 184.666 119.324 184.405 120.228C183.777 119.996 183.122 119.851 182.457 119.794V117.449H184.864ZM181.088 119.793C180.423 119.851 179.769 119.997 179.141 120.226C178.889 119.378 178.728 118.432 178.681 117.449H181.088V119.793ZM91.9434 115.646C91.3684 115.31 90.5297 115.674 90.0713 116.457C89.6133 117.24 89.7077 118.147 90.2822 118.483C90.8572 118.82 91.696 118.459 92.1543 117.676C92.6124 116.893 92.518 115.983 91.9434 115.646ZM177.05 112.131C177.309 112.331 177.587 112.516 177.877 112.686C177.557 113.714 177.358 114.865 177.312 116.06H175.288C175.437 114.585 176.057 113.203 177.05 112.131ZM184.401 113.281C184.653 114.13 184.817 115.076 184.864 116.06H182.457V113.714C183.121 113.656 183.774 113.509 184.401 113.281ZM186.492 112.13C187.487 113.201 188.108 114.584 188.256 116.06H186.233C186.189 114.913 185.999 113.778 185.667 112.683C185.953 112.515 186.228 112.331 186.492 112.13ZM179.14 113.28C179.768 113.511 180.423 113.657 181.088 113.714V116.059H178.682C178.729 115.092 178.883 114.163 179.14 113.28ZM45.21 109.801C45.6427 110.133 46.1121 110.44 46.6045 110.714C46.1109 112.222 45.8068 113.922 45.749 115.689H42.4971C42.6922 113.472 43.6504 111.391 45.21 109.801ZM56.0342 111.439C56.4421 112.729 56.7027 114.179 56.7646 115.689H52.9551V112.106C54.0079 112.029 55.0444 111.805 56.0342 111.439ZM58.998 109.8C60.5598 111.389 61.5193 113.471 61.7129 115.689H58.4629C58.408 113.998 58.1199 112.323 57.6074 110.71C58.092 110.44 58.5566 110.136 58.998 109.8ZM48.1748 111.436C49.1645 111.805 50.2019 112.03 51.2559 112.105V115.688H47.4473C47.509 114.205 47.7588 112.783 48.1748 111.436ZM181.086 112.318C180.59 112.265 180.103 112.153 179.632 111.984C180.055 111.106 180.564 110.507 181.086 110.225V112.318ZM182.457 110.224C182.98 110.505 183.489 111.104 183.911 111.985C183.463 112.147 182.971 112.263 182.457 112.318V110.224ZM151.145 107.109C150.102 107.002 149.143 108.034 149.001 109.411C148.859 110.791 149.586 111.994 150.629 112.102C151.668 112.209 152.628 111.179 152.771 109.8C152.912 108.423 152.184 107.217 151.145 107.109ZM184.885 110.858C185.071 110.963 185.253 111.078 185.429 111.201C185.342 111.262 185.252 111.322 185.16 111.379C185.076 111.201 184.984 111.028 184.885 110.858ZM178.66 110.853C178.561 111.022 178.467 111.196 178.382 111.374C178.292 111.317 178.203 111.258 178.115 111.197C178.291 111.073 178.473 110.958 178.66 110.853ZM51.2539 110.404C50.4107 110.331 49.5808 110.147 48.7861 109.856C49.4748 108.416 50.3446 107.444 51.2539 107.066V110.404ZM52.9551 107.066C53.8657 107.442 54.7354 108.413 55.4219 109.857C54.6706 110.135 53.8317 110.326 52.9551 110.403V107.066ZM56.2412 107.827C56.7439 108.066 57.2253 108.349 57.6797 108.672C57.4567 108.83 57.2206 108.981 56.9775 109.123C56.7664 108.672 56.5198 108.239 56.2412 107.827ZM47.9717 107.818C47.6914 108.231 47.443 108.666 47.2305 109.118C46.9908 108.978 46.7571 108.827 46.5303 108.667C46.9851 108.342 47.4678 108.058 47.9717 107.818ZM125.575 104.506C124.973 103.154 123.684 102.41 122.694 102.851C121.707 103.29 121.397 104.745 121.999 106.098C122.601 107.45 123.889 108.19 124.876 107.751C125.865 107.31 126.177 105.858 125.575 104.506ZM167.506 50.7344C163.55 50.7345 159.938 52.2038 157.184 54.627C157.156 54.6499 157.129 54.6744 157.104 54.7002C155.449 56.1667 154.123 57.9701 153.216 59.9873C152.309 62.0047 151.84 64.1923 151.842 66.4043C151.842 71.0393 153.859 75.2033 157.061 78.0674V78.0684L157.069 78.0752L157.074 78.0791C157.095 78.1011 157.115 78.1232 157.138 78.1436L157.234 78.2236C160.078 80.7095 163.729 82.0759 167.506 82.0693C171.3 82.0751 174.965 80.6966 177.813 78.1924L177.829 78.1777C177.831 78.1763 177.833 78.1752 177.835 78.1738L177.834 78.1729C179.51 76.7108 180.856 74.9075 181.777 72.8828C182.702 70.8507 183.18 68.6429 183.178 66.4102V66.2012L183.173 66.1982C183.117 61.6401 181.112 57.5522 177.952 54.7295L177.943 54.7217L177.932 54.7119C177.886 54.6661 177.837 54.624 177.784 54.5869C175.029 52.1753 171.514 50.8148 167.86 50.7383L167.506 50.7344ZM168.564 74.8047C169.885 74.9078 171.131 75.1914 172.298 75.6318C171.286 77.8084 169.966 79.2761 168.564 79.7725V74.8047ZM166.453 79.7686C165.051 79.2732 163.73 77.8121 162.719 75.6309C163.847 75.1988 165.121 74.9075 166.453 74.8037V79.7686ZM174.235 76.5508C174.686 76.8087 175.097 77.0731 175.485 77.3555C174.677 77.949 173.806 78.4507 172.888 78.8486C173.413 78.1311 173.865 77.3613 174.235 76.5508ZM160.789 76.5479C161.154 77.355 161.602 78.1211 162.124 78.835C161.211 78.4387 160.345 77.9416 159.539 77.3555C159.931 77.069 160.352 76.7976 160.789 76.5479ZM158.778 67.4561C158.845 69.8747 159.254 72.2717 159.996 74.5742C159.226 74.9989 158.538 75.4509 157.895 75.9482C155.623 73.673 154.24 70.661 153.993 67.4561H158.778ZM181.024 67.4561C180.776 70.6601 179.392 73.6715 177.122 75.9482C176.459 75.4321 175.754 74.9706 175.017 74.5674C175.73 72.4212 176.168 69.987 176.239 67.4561H181.024ZM174.13 67.4561C174.057 69.5666 173.7 71.6575 173.067 73.6719C171.625 73.1163 170.107 72.7848 168.564 72.6885V67.4561H174.13ZM166.453 72.6885C164.913 72.7894 163.397 73.1183 161.954 73.666C161.347 71.7917 160.966 69.6657 160.888 67.4551H166.453V72.6885ZM157.894 56.8525C158.542 57.3582 159.252 57.8245 160 58.2334C159.286 60.3795 158.849 62.8139 158.778 65.3447H153.991C154.24 62.1409 155.624 59.1292 157.894 56.8525ZM173.062 59.1328C173.669 61.0085 174.051 63.1336 174.13 65.3447H168.564V60.1104C170.104 60.0094 171.619 59.6802 173.062 59.1328ZM177.121 56.8516C179.393 59.1269 180.778 62.1391 181.024 65.3447H176.239C176.172 62.9259 175.761 60.5293 175.02 58.2266C175.754 57.8231 176.458 57.3639 177.121 56.8516ZM161.953 59.1279C163.395 59.6811 164.912 60.012 166.453 60.1104V65.3438H160.888C160.966 63.1711 161.334 61.0931 161.953 59.1279ZM166.45 57.9961C165.172 57.8984 163.915 57.6204 162.717 57.168C163.732 54.993 165.05 53.5274 166.45 53.0303V57.9961ZM168.564 53.0303C169.966 53.5255 171.285 54.9874 172.297 57.168C171.169 57.5999 169.896 57.8922 168.564 57.9961V53.0303ZM172.892 53.9609C173.808 54.3582 174.677 54.858 175.484 55.4482C175.092 55.7352 174.671 56.0068 174.232 56.2568C173.864 55.4473 173.415 54.6782 172.892 53.9609ZM162.129 53.9502C161.603 54.6681 161.151 55.4381 160.78 56.249C160.35 56.0026 159.933 55.7338 159.531 55.4424C160.339 54.849 161.21 54.3481 162.129 53.9502Z" fill="url(#paint0_linear_95_202)"/>
<path d="M118.712 0.904929C123.506 -0.292087 127.54 -0.491255 131.985 1.47855C135.89 3.20952 139.89 6.5327 145.061 11.5526L146.112 12.5791L146.128 12.5952C154.134 20.5914 159.197 24.8116 164.612 27.1793C169.992 29.5312 176.014 30.1821 186.287 30.2669H186.302C192.85 30.3524 198.238 30.6715 202.591 31.5994C206.987 32.5365 210.579 34.1459 213.295 36.992C215.994 39.8216 217.518 43.5523 218.425 48.1209C219.328 52.6678 219.67 58.3216 219.798 65.2418V65.2443C219.967 74.7553 220.814 80.7563 223.213 86.0272C225.621 91.3182 229.73 96.1772 237.085 103.102L237.089 103.105L237.092 103.108C245.231 110.814 250.28 117.417 249.988 124.936C249.842 128.682 248.38 132.294 245.957 136C243.544 139.691 240.062 143.65 235.626 148.123L235.616 148.133C228.631 155.109 224.626 160.258 222.278 165.975C219.928 171.698 219.117 178.286 219.117 188.383C219.117 194.43 218.842 199.453 217.95 203.551C217.047 207.697 215.467 211.106 212.709 213.698C209.975 216.268 206.388 217.748 202.028 218.639C197.687 219.527 192.324 219.88 185.811 220.009L185.799 220.009H185.787C178.609 220.094 174.435 220.311 171.138 220.954C167.957 221.574 165.489 222.614 161.776 224.591L161.741 224.61L161.705 224.628C157.378 226.789 150.527 232.457 146.803 236.823L146.803 236.822C139.73 245.176 132.988 250.229 125.212 249.992C117.614 249.76 110.215 244.473 101.764 235.776C94.9938 228.848 89.5515 224.722 83.5412 222.352C77.5256 219.98 70.6403 219.248 60.7664 219.666L60.7554 219.667H60.7444C51.0865 220.005 46.2388 219.589 41.7697 216.624C37.2941 213.704 34.2062 210.741 32.3841 205.845C30.6679 201.234 30.1698 195.123 30.0001 186.227V186.216L29.9997 186.204C29.9139 178.572 29.7373 174.485 29.0812 171.286C28.4526 168.221 27.362 165.869 25.0921 161.755L25.0819 161.736L25.0722 161.718C22.5311 156.96 17.1566 150.455 13.3626 147.297C4.74432 140.264 1.42e-05 133.027 0 125.223C1.931e-05 121.442 0.830376 118.162 3.09899 114.517C5.27242 111.025 8.74967 107.229 13.8784 102.277C20.7977 95.5337 24.5995 90.865 26.8243 85.5397C29.0601 80.1883 29.8306 73.8721 30.0001 63.5458V63.5353L30.0006 63.5251C30.3367 49.0911 30.7794 44.503 34.4912 39.3541C35.7474 37.6068 37.0347 36.0502 38.6319 34.7807C40.268 33.4803 42.105 32.5773 44.361 31.9514C48.3893 30.8338 54.0055 30.5545 62.6025 30.4547L64.3622 30.437C71.6493 30.3512 75.6216 30.1757 78.7673 29.5396C81.7848 28.9294 84.1475 27.8725 88.1584 25.7032C92.7323 23.1818 99.946 17.1416 103.997 12.287L104.022 12.2562L104.048 12.2267C106.599 9.32744 109.156 6.80967 111.569 4.88145C113.924 2.99944 116.377 1.48784 118.712 0.904929ZM141.735 27.2308C131.618 17.277 127.843 15.6178 119.991 17.5784C116.971 18.3325 112.743 21.8014 108.364 26.7783C104.588 31.3027 97.9444 36.8828 93.5654 39.2958C86.3174 43.217 84.0523 43.6694 71.2174 43.8202C54.0033 43.971 51.1342 44.7253 46.9062 50.607C44.1881 54.3774 43.7348 57.5445 43.4328 70.5145C43.1308 88.9139 40.7149 94.645 28.3329 106.71C19.2728 115.457 16.8566 119.379 16.8566 125.11C16.8567 130.841 20.3299 136.572 27.7289 142.604C31.3529 145.621 36.3357 151.653 38.7518 156.178C42.8288 163.567 43.2818 165.679 43.4328 179.102C43.7348 194.937 45.245 199.009 52.6441 203.835C55.8151 205.947 59.2881 206.399 67.8951 206.097C85.7133 205.343 94.0185 208.662 106.25 221.179C121.199 236.562 129.806 236.864 142.188 222.235C145.661 218.163 152.003 212.884 156.231 210.773C163.026 207.153 166.046 206.55 178.73 206.399C201.683 205.947 205.609 202.327 205.609 181.062C205.609 162.965 208.478 156.027 221.011 143.509C236.564 127.825 236.866 121.189 222.37 107.464C209.233 95.0976 206.515 89.0648 206.213 72.0227C205.76 47.5907 202.286 43.9712 179.183 43.6695C160.912 43.5187 155.929 41.4073 141.735 27.2308ZM185.751 216.984C185.304 216.989 184.867 216.995 184.44 217.001L185.751 216.984ZM188.015 216.927C188.049 216.926 188.083 216.926 188.118 216.925C188.367 216.917 188.614 216.908 188.859 216.9C188.581 216.91 188.299 216.919 188.015 216.927ZM194.897 216.559C193.104 216.71 191.164 216.818 189.067 216.893C189.129 216.891 189.192 216.889 189.255 216.887C191.28 216.812 193.157 216.706 194.897 216.559ZM195.858 216.472C196.036 216.455 196.213 216.439 196.388 216.421C196.459 216.413 196.531 216.404 196.602 216.397C196.357 216.423 196.109 216.448 195.858 216.472ZM200.648 215.825C199.74 215.992 198.781 216.136 197.769 216.262C197.904 216.245 198.039 216.23 198.172 216.212C198.749 216.136 199.307 216.054 199.849 215.965C200.12 215.92 200.386 215.874 200.648 215.825L200.648 215.825ZM202.434 215.452C202.468 215.444 202.502 215.437 202.535 215.429C202.619 215.409 202.702 215.388 202.785 215.367C202.669 215.396 202.552 215.424 202.434 215.452ZM38.5775 210.217C38.7502 210.4 38.9283 210.579 39.1118 210.757L38.8408 210.489C38.7518 210.399 38.6639 210.309 38.5775 210.217ZM246.93 125.384C246.915 125.569 246.896 125.753 246.873 125.939C246.884 125.845 246.895 125.752 246.905 125.659L246.93 125.384ZM105.322 15.3755C105.376 15.3151 105.431 15.2559 105.484 15.1957L105.498 15.1801C105.44 15.2454 105.381 15.3099 105.322 15.3755ZM119.123 3.92837C118.973 3.97322 118.82 4.02349 118.664 4.07948C118.819 4.02376 118.971 3.97391 119.121 3.92921L119.123 3.92837ZM119.857 3.73969C119.83 3.74614 119.803 3.75259 119.776 3.75911C119.939 3.71959 120.102 3.68172 120.263 3.64515L119.857 3.73969Z" fill="url(#paint1_linear_95_202)"/>
<path d="M84.1363 159.38C83.7932 160.494 82.8833 161.222 81.8242 161.222C81.5855 161.222 81.3916 161.415 81.3916 161.668C81.3916 161.92 81.6601 162.113 82.0032 162.113C83.0921 162.113 83.7484 162.693 84.0766 163.926C84.4644 165.323 85.0164 165.323 85.2998 163.926C85.5385 162.767 85.5683 162.738 86.9108 162.277C87.5075 162.084 87.9848 161.801 87.9848 161.668C87.9848 161.534 87.5075 161.252 86.9108 161.059C85.5683 160.598 85.5385 160.568 85.2998 159.409C85.0313 158.042 84.539 158.042 84.1363 159.38Z" fill="#FFB3B3"/>
<path d="M191.157 131.829C190.997 132.33 191.237 133.629 191.73 134.764C192.814 137.261 190.256 142.311 187.259 143.613C184.307 144.895 185.836 146.551 189.5 146.039C193.346 145.448 195.521 146.231 197.739 149.099C200.205 152.291 202.519 152.15 201.138 148.972C199.817 145.93 201.931 140.479 204.928 139.178C206.382 138.546 207.028 137.672 206.653 136.81C206.279 135.947 205.199 135.822 203.746 136.454C200.793 137.736 195.322 135.579 194.041 132.627C193.074 130.403 191.896 130.051 191.157 131.829Z" fill="#FEF08A"/>
<path d="M57.9894 135.565C57.6363 135.8 57.1337 136.738 56.8724 137.701C56.2976 139.819 52.1479 141.711 49.6077 141.022C47.1061 140.343 47.234 142.156 49.796 143.678C52.512 145.242 53.4862 146.829 53.4369 149.751C53.381 153.003 54.9072 154.078 55.6388 151.383C56.339 148.802 60.4113 146.435 62.9514 147.124C64.183 147.458 65.0292 147.233 65.2278 146.501C65.4263 145.77 64.81 145.148 63.5785 144.813C61.0768 144.134 58.7218 140.022 59.4011 137.519C59.9132 135.632 59.3492 134.818 57.9894 135.565Z" fill="#A5B4FC"/>
<path d="M117.968 196.93C117.685 197.254 117.441 198.308 117.441 199.321C117.441 201.551 113.873 204.509 111.197 204.509C108.562 204.509 109.17 206.252 112.089 207.063C115.171 207.874 116.549 209.171 117.279 212.048C118.09 215.25 119.874 215.899 119.874 213.062C119.874 210.346 123.239 206.941 125.916 206.941C127.213 206.941 127.983 206.495 127.983 205.725C127.983 204.955 127.213 204.509 125.916 204.509C123.28 204.509 119.874 201.105 119.874 198.47C119.874 196.484 119.104 195.836 117.968 196.93Z" fill="#FDBA74"/>
<path d="M125.209 51.6644C123.611 55.4937 118.019 59.1242 114.53 58.5155C113.327 58.3057 112.167 58.9125 111.988 59.9394C111.809 60.9663 112.754 61.9405 114.138 62.1818C118.53 62.9479 120.776 65.7051 121.236 70.8892C121.799 76.9005 123.229 77.5857 125.045 72.8608C126.769 68.3066 131.343 65.1831 135.133 65.8443C136.998 66.1696 138.257 65.7045 138.458 64.5568C138.637 63.5299 137.992 62.6082 137.029 62.4403C132.758 61.6952 129.604 58.0952 129.061 53.3944C128.346 47.5432 127.146 46.9604 125.209 51.6644Z" fill="#BFE3FF"/>
<path d="M159.479 169.523C159.312 169.714 159.169 170.309 159.169 170.88C159.169 172.118 158.027 173.214 156.076 173.833C154.315 174.404 154.386 175.023 156.195 175.499C157.884 175.952 159.026 177.142 159.241 178.69C159.479 180.333 160.597 180.571 160.597 178.999C160.597 177.404 162.572 175.404 164.142 175.404C165.951 175.404 165.642 174.142 163.738 173.785C161.834 173.428 161.192 172.761 160.787 170.714C160.478 169.238 160.121 168.904 159.479 169.523Z" fill="#A5B4FC"/>
<path d="M163.097 95.7073C162.436 97.0198 160.377 98.0988 159.147 97.7531C158.729 97.6359 158.298 97.8098 158.197 98.1675C158.097 98.5252 158.396 98.9042 158.875 99.039C160.378 99.4608 161.092 100.524 161.108 102.39C161.155 104.628 161.554 104.808 162.441 103.014C163.188 101.476 164.78 100.697 166.24 101.107C166.824 101.271 167.27 101.124 167.377 100.746C167.477 100.388 167.199 100.015 166.782 99.8975C165.572 99.5577 164.34 97.5319 164.418 96.0553C164.518 94.3356 163.871 94.154 163.097 95.7073Z" fill="#FDA4AF"/>
<path d="M77.1923 69.7819C77.1156 70.1364 77.3497 70.982 77.7463 71.6987C78.6057 73.2516 77.9333 75.4181 75.9157 77.5489C74.1038 79.4878 74.623 80.2147 77.2218 79.5567C79.6548 78.9514 81.9137 79.6517 83.2565 81.4441C84.6952 83.3395 86.2632 82.8618 85.1725 80.8909C84.0652 78.8901 85.1542 75.0107 87.1239 73.9206C89.4519 72.6323 88.1283 71.2974 85.4166 72.1739C83.1126 72.9419 80.0989 71.7231 78.8925 69.5431C78.3637 68.5875 77.5285 68.6986 77.1923 69.7819Z" fill="#A7F3D0"/>
<path d="M353.267 84.1026H324.373L319.741 100H300L328.012 10H349.848L377.86 100H357.899L353.267 84.1026ZM348.415 67.1795L338.82 34.2308L329.336 67.1795H348.415Z" fill="white"/>
<path d="M485.09 10V100H466.232V46.0256L448.917 100H433.698L416.273 45.8974V100H397.414V10H419.692L441.418 72.3077L462.923 10H485.09Z" fill="white"/>
<path d="M528.539 10V100H509.68V10H528.539Z" fill="white"/>
<path d="M592.715 100L576.614 66.0256H572.092V100H553.234V10H584.885C590.987 10 596.171 11.2393 600.435 13.7179C604.773 16.1966 608.008 19.6154 610.14 23.9744C612.272 28.2479 613.338 33.0342 613.338 38.3333C613.338 44.3162 611.868 49.6581 608.927 54.359C606.06 59.0598 601.795 62.3932 596.134 64.359L614 100H592.715ZM572.092 50.5128H583.782C587.238 50.5128 589.811 49.5299 591.502 47.5641C593.267 45.5983 594.149 42.8205 594.149 39.2308C594.149 35.812 593.267 33.1197 591.502 31.1538C589.811 29.188 587.238 28.2051 583.782 28.2051H572.092V50.5128Z" fill="white"/>
<path d="M322.504 240C318.288 240 314.51 238.841 311.17 236.523C307.83 234.205 305.147 230.774 303.121 226.231C301.15 221.688 300.11 216.217 300 209.819H314.948C315.167 213.435 315.906 216.217 317.166 218.164C318.425 220.019 320.068 220.946 322.094 220.946C324.174 220.946 325.817 220.158 327.021 218.581C328.226 216.912 328.828 214.641 328.828 211.766C328.828 209.356 328.336 207.362 327.35 205.786C326.419 204.21 325.242 202.911 323.818 201.892C322.449 200.872 320.478 199.713 317.905 198.414C314.181 196.467 311.143 194.52 308.788 192.573C306.434 190.626 304.408 187.752 302.71 183.95C301.013 180.148 300.164 175.188 300.164 169.068C300.164 159.981 302.108 152.888 305.996 147.789C309.883 142.596 314.948 140 321.19 140C327.542 140 332.661 142.596 336.549 147.789C340.436 152.888 342.517 160.028 342.791 169.207H327.596C327.487 166.055 326.802 163.598 325.543 161.836C324.284 159.981 322.668 159.054 320.697 159.054C319 159.054 317.631 159.842 316.591 161.419C315.55 162.902 315.03 165.081 315.03 167.955C315.03 171.108 315.906 173.565 317.658 175.327C319.411 177.089 322.148 178.989 325.872 181.029C329.595 183.162 332.606 185.202 334.906 187.149C337.261 189.096 339.286 191.924 340.984 195.633C342.681 199.342 343.53 204.117 343.53 209.958C343.53 215.522 342.681 220.575 340.984 225.118C339.341 229.662 336.932 233.278 333.756 235.967C330.58 238.656 326.83 240 322.504 240Z" fill="white"/>
<path d="M374.431 160.445V180.195H393.239V198.554H374.431V219.972H395.703V239.026H360.386V141.391H395.703V160.445H374.431Z" fill="white"/>
<path d="M434.635 141.391C440.713 141.391 446.024 143.431 450.568 147.51C455.113 151.59 458.617 157.339 461.081 164.757C463.6 172.082 464.859 180.566 464.859 190.209C464.859 199.759 463.6 208.243 461.081 215.661C458.617 223.078 455.086 228.827 450.486 232.907C445.942 236.987 440.658 239.026 434.635 239.026H413.034V141.391H434.635ZM433.731 218.442C439.043 218.442 443.177 215.985 446.133 211.071C449.09 206.157 450.568 199.203 450.568 190.209C450.568 181.215 449.09 174.214 446.133 169.207C443.177 164.2 439.043 161.697 433.731 161.697H427.079V218.442H433.731Z" fill="white"/>
<path d="M516.813 221.78H495.294L491.845 239.026H477.143L498.005 141.391H514.267L535.129 239.026H520.263L516.813 221.78ZM513.199 203.421L506.054 167.677L498.99 203.421H513.199Z" fill="white"/>
<path d="M587.964 172.267C586.924 169.022 585.418 166.565 583.447 164.896C581.531 163.134 579.258 162.253 576.63 162.253C572.086 162.253 568.444 164.803 565.707 169.903C562.969 174.91 561.6 181.632 561.6 190.07C561.6 199.064 563.024 206.11 565.871 211.21C568.773 216.217 572.743 218.72 577.78 218.72C581.23 218.72 584.132 217.237 586.486 214.27C588.895 211.303 590.647 207.038 591.742 201.474H573.92V183.95H604.473V206.064C603.433 211.998 601.653 217.515 599.134 222.615C596.67 227.714 593.522 231.841 589.689 234.993C585.856 238.146 581.531 239.722 576.712 239.722C571.018 239.722 565.926 237.636 561.436 233.463C557.001 229.198 553.524 223.31 551.005 215.8C548.541 208.289 547.309 199.713 547.309 190.07C547.309 180.427 548.541 171.85 551.005 164.339C553.524 156.736 557.001 150.848 561.436 146.676C565.871 142.411 570.936 140.278 576.63 140.278C583.529 140.278 589.333 143.106 594.042 148.762C598.806 154.418 601.954 162.253 603.487 172.267H587.964Z" fill="white"/>
<path d="M670.402 141.391V239.026H656.357V198.832H634.51V239.026H620.466V141.391H634.51V179.638H656.357V141.391H670.402Z" fill="white"/>
<path d="M724.646 221.78H703.127L699.677 239.026H684.976L705.837 141.391H722.099L742.961 239.026H728.095L724.646 221.78ZM721.032 203.421L713.886 167.677L706.823 203.421H721.032Z" fill="white"/>
<path d="M799 141.391V160.445H783.723V239.026H769.679V160.445H754.402V141.391H799Z" fill="white"/>
<defs>
<linearGradient id="paint0_linear_95_202" x1="38.4688" y1="125.954" x2="193.913" y2="125.954" gradientUnits="userSpaceOnUse">
<stop stop-color="#F8BBD0"/>
<stop offset="1" stop-color="#D6C4FF"/>
</linearGradient>
<linearGradient id="paint1_linear_95_202" x1="250" y1="125.064" x2="0" y2="125.064" gradientUnits="userSpaceOnUse">
<stop offset="0.1" stop-color="#F8BBD0"/>
<stop offset="0.3" stop-color="#FFF3B0"/>
<stop offset="0.6" stop-color="#A5B4FC"/>
<stop offset="0.8" stop-color="#C7DBF3"/>
<stop offset="1" stop-color="#B8F2E6"/>
</linearGradient>
</defs>
</svg>
