<svg width="150" height="150" viewBox="0 0 150 150" fill="none" xmlns="http://www.w3.org/2000/svg">
<path d="M35.8539 130.631C36.9257 130.717 37.9383 130.947 38.8867 131.303C38.0605 133.072 36.9886 134.264 35.8539 134.679V130.631Z" fill="white"/>
<path d="M34.0709 134.676C32.9361 134.262 31.8641 133.075 31.0381 131.303C31.956 130.953 32.9897 130.717 34.0709 130.631V134.676Z" fill="white"/>
<path d="M40.5223 132.079C40.877 132.283 41.2027 132.492 41.5104 132.715C40.8708 133.182 40.1835 133.579 39.4596 133.899C39.8715 133.328 40.228 132.72 40.5223 132.079Z" fill="white"/>
<path d="M29.4094 132.076C29.6989 132.712 30.0497 133.318 30.4573 133.884C29.74 133.567 29.0569 133.175 28.4204 132.715C28.7312 132.488 29.0639 132.274 29.4094 132.076Z" fill="white"/>
<path d="M27.7391 124.567C27.7959 126.552 28.1321 128.519 28.7394 130.41C28.1153 130.755 27.557 131.122 27.0345 131.524C25.1765 129.657 24.0424 127.192 23.8352 124.567H27.7391Z" fill="white"/>
<path d="M46.0896 124.567C45.8804 127.191 44.7471 129.656 42.8903 131.524C42.3514 131.107 41.7799 130.732 41.1819 130.404C41.7662 128.641 42.1256 126.643 42.1856 124.567H46.0896Z" fill="white"/>
<path d="M40.4044 124.567C40.3429 126.292 40.0508 128.001 39.5359 129.648C38.3562 129.196 37.1149 128.925 35.8539 128.844V124.567H40.4044Z" fill="white"/>
<path d="M34.0709 128.844C32.8118 128.929 31.5725 129.198 30.3923 129.644C29.8978 128.11 29.5864 126.373 29.5204 124.566H34.0709V128.844Z" fill="white"/>
<path d="M27.0327 115.826C27.5596 116.236 28.1362 116.614 28.742 116.946C28.1575 118.71 27.7992 120.708 27.7391 122.785H23.8343C24.0433 120.16 25.1758 117.695 27.0327 115.826Z" fill="white"/>
<path d="M39.5316 117.706C40.0262 119.241 40.3385 120.978 40.4044 122.785H35.8539V118.505C37.1127 118.42 38.3517 118.152 39.5316 117.706Z" fill="white"/>
<path d="M42.8894 115.825C44.748 117.693 45.8816 120.159 46.0887 122.785H42.1856C42.1289 120.799 41.7919 118.832 41.1845 116.941C41.7803 116.613 42.3505 116.24 42.8894 115.825Z" fill="white"/>
<path d="M30.3915 117.702C31.5709 118.152 32.811 118.422 34.0709 118.505V122.783H29.5212C29.5872 121.008 29.8871 119.309 30.3915 117.702Z" fill="white"/>
<path d="M34.0692 116.72C33.0312 116.639 32.01 116.412 31.0355 116.047C31.8647 114.278 32.9353 113.088 34.0692 112.673V116.72Z" fill="white"/>
<path d="M35.8539 112.674C36.9883 113.088 38.06 114.275 38.8858 116.047C37.968 116.396 36.9348 116.634 35.8539 116.72V112.674Z" fill="white"/>
<path d="M39.4657 113.463C40.1859 113.781 40.8709 114.175 41.5087 114.639C41.1978 114.865 40.8653 115.08 40.5197 115.278C40.2276 114.64 39.8746 114.032 39.4657 113.463Z" fill="white"/>
<path d="M30.4625 113.452C30.051 114.022 29.6956 114.632 29.4016 115.272C29.0619 115.076 28.7319 114.864 28.4144 114.635C29.0532 114.168 29.7397 113.771 30.4625 113.452Z" fill="white"/>
<path fill-rule="evenodd" clip-rule="evenodd" d="M44.0665 56.7177C46.6395 56.1677 49.2497 55.9956 51.8207 56.1786C58.2709 56.6343 64.5604 59.2294 69.827 63.6857C70.8976 64.5935 71.9138 65.5982 72.8893 66.6588C69.8983 65.9533 66.9578 65.6541 63.9156 65.707C57.6184 65.8284 50.9695 67.9 45.4438 72.9593C43.943 74.307 42.5586 75.8774 41.3119 77.6165C41.1797 73.8817 41.6544 70.235 42.6589 66.7827C40.2064 69.9794 38.1389 73.4544 36.5421 77.151C32.596 86.2913 31.4427 96.8036 34.3951 108.116C35.1465 108.092 35.9081 108.114 36.6773 108.201C45.2642 109.17 51.4284 116.818 50.4425 125.277C49.4562 133.736 41.689 139.804 33.1019 138.834C24.5154 137.865 18.3516 130.227 19.3375 121.767C20.0051 116.039 23.7842 111.407 28.8174 109.313C25.6577 96.9135 26.879 85.1237 31.2712 74.952C34.2511 68.0512 38.6559 61.8933 44.0665 56.7177ZM34.9594 110.731C31.7021 110.731 28.7272 111.936 26.4546 113.926C26.4225 113.95 26.3934 113.978 26.3653 114.007C24.9967 115.219 23.9011 116.709 23.1513 118.376C22.4017 120.043 22.0146 121.851 22.0159 123.678L22.0211 124.036C22.1213 127.723 23.7648 131.024 26.328 133.317L26.3358 133.324C26.3729 133.363 26.4135 133.4 26.4563 133.433C28.808 135.495 31.8317 136.629 34.9594 136.624C38.1022 136.628 41.1394 135.484 43.4962 133.404L43.4953 133.404C44.8804 132.195 45.992 130.705 46.7535 129.032C47.5178 127.353 47.9122 125.529 47.9107 123.684V123.499L47.9063 123.496C47.857 119.735 46.2003 116.361 43.5924 114.031L43.5846 114.024L43.5759 114.017C43.54 113.981 43.5012 113.947 43.4598 113.918C41.1083 111.857 38.086 110.725 34.9594 110.731ZM47.8777 60.9285C47.3674 60.63 46.6238 60.953 46.217 61.6479C45.8104 62.3429 45.8939 63.1487 46.4042 63.4474C46.9145 63.7456 47.6591 63.4243 48.0658 62.7297C48.4723 62.0346 48.3879 61.2272 47.8777 60.9285Z" fill="white"/>
<path d="M134.683 126.719C135.435 126.786 136.147 126.947 136.817 127.191C136.222 128.439 135.47 129.281 134.683 129.61V126.719Z" fill="white"/>
<path d="M133.194 129.608C132.407 129.28 131.654 128.44 131.059 127.19C131.709 126.95 132.436 126.785 133.194 126.718V129.608Z" fill="white"/>
<path d="M138.182 127.838C138.394 127.962 138.591 128.089 138.779 128.222C138.391 128.499 137.98 128.741 137.551 128.947C137.789 128.594 138.001 128.224 138.182 127.838Z" fill="white"/>
<path d="M129.698 127.836C129.877 128.22 130.087 128.588 130.322 128.938C129.897 128.734 129.488 128.494 129.102 128.221C129.292 128.087 129.492 127.957 129.698 127.836Z" fill="white"/>
<path d="M128.402 122.119C128.45 123.588 128.7 125.043 129.144 126.443C128.707 126.688 128.312 126.947 127.941 127.23C126.587 125.85 125.754 124.044 125.585 122.119H128.402Z" fill="white"/>
<path d="M142.293 122.119C142.122 124.043 141.289 125.848 139.937 127.229C139.555 126.937 139.152 126.673 138.732 126.439C139.16 125.129 139.426 123.654 139.476 122.119H142.293Z" fill="white"/>
<path d="M137.986 122.119C137.936 123.37 137.725 124.609 137.357 125.806C136.498 125.485 135.598 125.289 134.683 125.224V122.119H137.986Z" fill="white"/>
<path d="M133.194 125.225C132.28 125.292 131.381 125.486 130.522 125.803C130.169 124.685 129.945 123.427 129.891 122.118H133.194V125.225Z" fill="white"/>
<path d="M127.939 115.519C128.313 115.806 128.719 116.072 129.144 116.308C128.716 117.618 128.452 119.094 128.401 120.629H125.584C125.755 118.705 126.586 116.899 127.939 115.519Z" fill="white"/>
<path d="M137.354 116.944C137.707 118.062 137.932 119.32 137.986 120.629H134.683V117.522C135.596 117.454 136.495 117.26 137.354 116.944Z" fill="white"/>
<path d="M139.936 115.518C141.29 116.898 142.122 118.704 142.292 120.629H139.476C139.427 119.16 139.177 117.706 138.733 116.305C139.152 116.071 139.554 115.808 139.936 115.518Z" fill="white"/>
<path d="M130.522 116.94C131.38 117.26 132.28 117.456 133.194 117.522V120.628H129.891C129.945 119.341 130.161 118.109 130.522 116.94Z" fill="white"/>
<path d="M133.192 116.029C132.463 115.965 131.745 115.807 131.057 115.556C131.654 114.31 132.407 113.469 133.192 113.139V116.029Z" fill="white"/>
<path d="M134.683 113.139C135.47 113.467 136.222 114.307 136.817 115.557C136.167 115.797 135.441 115.962 134.683 116.029V113.139Z" fill="white"/>
<path d="M137.553 113.807C137.981 114.012 138.391 114.253 138.779 114.528C138.588 114.663 138.388 114.791 138.181 114.913C138 114.528 137.79 114.159 137.553 113.807Z" fill="white"/>
<path d="M130.324 113.8C130.086 114.152 129.876 114.524 129.694 114.909C129.49 114.789 129.29 114.661 129.097 114.524C129.485 114.248 129.895 114.005 130.324 113.8Z" fill="white"/>
<path fill-rule="evenodd" clip-rule="evenodd" d="M63.679 71.4217C64.9294 71.4436 66.199 71.5554 67.4564 71.7268C66.2854 72.1113 65.1274 72.5843 64.0196 73.2271C61.1112 74.9415 58.3905 77.3545 56.2481 80.7958C54.1074 84.1956 52.8665 88.6584 52.8625 92.915C52.8317 97.1851 53.8463 101.165 55.384 104.523C57.6521 109.428 60.9854 113.167 64.8014 115.616C67.3358 117.878 70.1177 119.886 73.1302 121.588C85.6197 128.641 102.14 130.624 121.997 123.324C121.992 123.296 121.982 123.268 121.977 123.239C120.997 116.748 125.549 110.702 132.138 109.738C138.728 108.774 144.865 113.258 145.845 119.749C146.825 126.24 142.274 132.285 135.684 133.249C131.106 133.919 126.755 131.958 124.192 128.523C102.902 136.357 84.3329 134.419 70.2838 126.485C54.4627 117.549 44.4922 101.277 42.0738 83.7168C42.0626 83.6644 42.0519 83.6115 42.0409 83.5591C43.5499 81.0142 45.3773 78.795 47.44 77.0522C52.2155 72.9406 58.0112 71.3027 63.679 71.4217ZM133.936 111.498C131.441 111.498 129.162 112.424 127.426 113.953L127.427 113.954C127.41 113.968 127.394 113.983 127.379 113.998C126.335 114.923 125.5 116.059 124.928 117.331C124.356 118.603 124.06 119.982 124.061 121.376L124.064 121.649C124.141 124.462 125.395 126.981 127.351 128.73L127.359 128.737C127.392 128.771 127.427 128.804 127.466 128.832C129.258 130.397 131.557 131.257 133.937 131.253C136.335 131.257 138.652 130.383 140.45 128.797L140.449 128.796C141.506 127.874 142.354 126.738 142.935 125.461C143.518 124.18 143.819 122.788 143.818 121.381V121.197L143.814 121.194C143.764 118.341 142.502 115.784 140.523 114.016L140.515 114.009L140.509 114.004C140.48 113.976 140.45 113.95 140.418 113.926C138.624 112.357 136.32 111.493 133.936 111.498ZM48.7514 92.4253C47.697 92.3164 46.722 93.3622 46.5776 94.7612C46.4336 96.158 47.1745 97.3809 48.2288 97.4898C49.2845 97.5986 50.2574 96.5523 50.4018 95.1556C50.546 93.7566 49.8073 92.5343 48.7514 92.4253Z" fill="white"/>
<path fill-rule="evenodd" clip-rule="evenodd" d="M60.9712 82.4392C61.0318 83.752 61.2895 84.9111 61.5996 85.9383C62.4003 88.3748 63.5126 90.243 64.7416 91.9225C67.2175 95.224 70.1022 97.5745 73.0774 99.5215C79.0587 103.343 85.4914 105.582 92.1013 106.576C93.625 106.795 95.1612 106.938 96.7073 106.991C94.3355 107.914 91.8981 108.687 89.4151 109.304C87.1105 110.152 84.6808 110.782 82.1499 111.153C75.5302 112.121 69.0675 111.226 63.3054 108.871C61.4294 106.91 59.8426 104.532 58.6942 101.826C57.4982 99.0161 56.8235 95.8387 56.9311 92.7347C57.0236 89.6351 57.9374 86.6753 59.5176 84.3001C59.9513 83.6353 60.4443 83.0212 60.9712 82.4392ZM72.0043 102.453C70.8284 101.947 69.3275 102.802 68.6568 104.36C67.985 105.922 68.3964 107.598 69.5721 108.104C70.7494 108.611 72.2499 107.757 72.9222 106.196C73.5928 104.637 73.1817 102.96 72.0043 102.453Z" fill="white"/>
<path d="M128.216 65.8492C128.668 65.8979 129.098 65.9997 129.507 66.1456C129.132 66.9258 128.68 67.4582 128.216 67.7084V65.8492Z" fill="white"/>
<path d="M127.001 67.7067C126.537 67.4571 126.083 66.9264 125.709 66.1439C126.107 66.0005 126.545 65.8984 127.001 65.8492V67.7067Z" fill="white"/>
<path d="M130.854 66.8425C130.698 66.9525 130.537 67.0552 130.371 67.1485C130.459 66.9983 130.541 66.8442 130.616 66.6865C130.698 66.7376 130.777 66.7893 130.854 66.8425Z" fill="white"/>
<path d="M124.603 66.6848C124.677 66.841 124.758 66.9936 124.844 67.1424C124.68 67.0504 124.521 66.9497 124.366 66.8416C124.443 66.7879 124.522 66.7353 124.603 66.6848Z" fill="white"/>
<path d="M123.648 62.5286C123.687 63.5461 123.856 64.5536 124.151 65.5259C123.888 65.6799 123.646 65.8412 123.418 66.0156C122.536 65.0647 121.985 63.8381 121.854 62.5286H123.648Z" fill="white"/>
<path d="M133.363 62.5286C133.231 63.8375 132.68 65.0633 131.799 66.0147C131.564 65.8348 131.319 65.6709 131.064 65.5224C131.348 64.6095 131.527 63.5892 131.568 62.5286H133.363Z" fill="white"/>
<path d="M130.353 62.5286C130.313 63.3646 130.177 64.1926 129.945 64.9945C129.388 64.7892 128.807 64.6599 128.216 64.6097V62.5286H130.353Z" fill="white"/>
<path d="M127.001 64.6088C126.411 64.6605 125.83 64.79 125.273 64.9928C125.049 64.2403 124.906 63.4012 124.864 62.5286H127.001V64.6088Z" fill="white"/>
<path d="M123.417 57.8081C123.647 57.9854 123.894 58.1504 124.151 58.3005C123.867 59.2135 123.69 60.2344 123.649 61.2952H121.853C121.985 59.9862 122.535 58.7596 123.417 57.8081Z" fill="white"/>
<path d="M129.942 58.8292C130.165 59.5827 130.311 60.4218 130.353 61.2952H128.216V59.2132C128.805 59.1615 129.385 59.0317 129.942 58.8292Z" fill="white"/>
<path d="M131.798 57.8073C132.68 58.7583 133.232 59.9852 133.363 61.2952H131.568C131.529 60.2776 131.36 59.2701 131.065 58.2979C131.319 58.1494 131.564 57.9861 131.798 57.8073Z" fill="white"/>
<path d="M125.272 58.8283C125.829 59.0331 126.411 59.1623 127.001 59.2132V61.2943H124.865C124.907 60.4364 125.044 59.6123 125.272 58.8283Z" fill="white"/>
<path d="M126.999 57.9746C126.559 57.9274 126.126 57.8275 125.709 57.6781C126.084 56.8984 126.536 56.3664 126.999 56.1162V57.9746Z" fill="white"/>
<path d="M128.216 56.1153C128.68 56.3649 129.132 56.897 129.507 57.679C129.109 57.8223 128.672 57.9253 128.216 57.9746V56.1153Z" fill="white"/>
<path d="M130.371 56.6787C130.536 56.7717 130.698 56.8735 130.854 56.983C130.776 57.0371 130.697 57.0898 130.615 57.1407C130.54 56.9831 130.459 56.8289 130.371 56.6787Z" fill="white"/>
<path d="M124.846 56.6735C124.758 56.8241 124.675 56.9783 124.599 57.1364C124.519 57.0862 124.44 57.0336 124.362 56.9795C124.519 56.8694 124.68 56.7669 124.846 56.6735Z" fill="white"/>
<path d="M115.885 24.6775C117.058 24.7691 118.164 25.0207 119.199 25.4117C118.301 27.3436 117.13 28.6461 115.885 29.0868V24.6775Z" fill="white"/>
<path d="M114.012 29.0833C112.767 28.6437 111.595 27.3469 110.697 25.4108C111.699 25.0273 112.829 24.7688 114.012 24.6767V29.0833Z" fill="white"/>
<path d="M120.919 26.2273C121.319 26.4563 121.683 26.6909 122.028 26.9415C121.311 27.4684 120.538 27.9136 119.723 28.2668C120.189 27.6299 120.59 26.9468 120.919 26.2273Z" fill="white"/>
<path d="M108.984 26.2247C109.308 26.9412 109.706 27.6211 110.169 28.2547C109.359 27.903 108.59 27.4618 107.875 26.9415C108.222 26.6872 108.596 26.4464 108.984 26.2247Z" fill="white"/>
<path d="M107.2 18.1551C107.259 20.3018 107.622 22.4293 108.28 24.473C107.596 24.85 106.986 25.2511 106.415 25.6925C104.399 23.6731 103.171 20.9998 102.952 18.1551H107.2Z" fill="white"/>
<path d="M126.945 18.1551C126.724 20.9989 125.496 23.6717 123.481 25.6925C122.892 25.2344 122.267 24.8248 121.612 24.4669C122.246 22.562 122.635 20.4015 122.697 18.1551H126.945Z" fill="white"/>
<path d="M120.825 18.1551C120.761 20.0284 120.443 21.8842 119.882 23.6721C118.602 23.1789 117.255 22.8848 115.885 22.7992V18.1551H120.825Z" fill="white"/>
<path d="M114.012 22.7992C112.644 22.8888 111.299 23.1807 110.018 23.6669C109.48 22.0033 109.141 20.1164 109.072 18.1542H114.012V22.7992Z" fill="white"/>
<path d="M106.414 8.74368C106.99 9.19255 107.62 9.60636 108.284 9.96929C107.651 11.8742 107.262 14.0348 107.2 16.2811H102.951C103.172 13.4374 104.4 10.7644 106.414 8.74368Z" fill="white"/>
<path d="M119.877 10.7676C120.416 12.4324 120.756 14.3186 120.825 16.2811H115.885V11.6352C117.252 11.5456 118.597 11.2535 119.877 10.7676Z" fill="white"/>
<path d="M123.48 8.74281C125.497 10.7623 126.726 13.436 126.945 16.2811H122.697C122.638 14.1343 122.273 12.0071 121.615 9.96323C122.267 9.60506 122.891 9.1976 123.48 8.74281Z" fill="white"/>
<path d="M110.017 10.7633C111.297 11.2542 112.643 11.548 114.012 11.6352V16.2803H109.072C109.141 14.3518 109.468 12.5075 110.017 10.7633Z" fill="white"/>
<path d="M114.009 9.75867C112.875 9.67199 111.759 9.42524 110.695 9.02365C111.597 7.09316 112.766 5.79224 114.009 5.35114V9.75867Z" fill="white"/>
<path d="M115.885 5.35114C117.13 5.79071 118.3 7.08831 119.198 9.02365C118.197 9.40711 117.067 9.66641 115.885 9.75867V5.35114Z" fill="white"/>
<path d="M119.726 6.17717C120.539 6.52976 121.311 6.97337 122.027 7.49726C121.679 7.75199 121.305 7.99298 120.916 8.21495C120.589 7.49647 120.191 6.81379 119.726 6.17717Z" fill="white"/>
<path d="M110.173 6.16764C109.707 6.80484 109.305 7.48826 108.976 8.20802C108.594 7.9893 108.224 7.75077 107.868 7.49206C108.585 6.96537 109.358 6.52078 110.173 6.16764Z" fill="white"/>
<path fill-rule="evenodd" clip-rule="evenodd" d="M115.363 0.0126915C123.837 0.0474105 131.255 6.17391 132.54 14.6845C133.568 21.4892 130.39 27.95 124.939 31.525C128.208 39.4534 129.991 47.0071 130.508 54.0646C133.368 55.0774 135.589 57.5759 136.067 60.7439C136.734 65.1606 133.774 69.2806 129.397 70.1882C128.261 75.273 126.395 79.9721 123.923 84.2273C120.103 90.8033 114.884 96.294 108.781 100.563C106.658 101.48 104.374 101.95 102.097 102.149C98.9972 102.409 95.8616 102.175 92.7808 101.615C86.6222 100.465 80.5767 98.0866 75.2235 94.3989C73.8068 93.4081 72.4435 92.3014 71.1835 91.0826C73.2404 91.7888 75.3031 92.1957 77.3974 92.4695C80.8819 92.8571 84.4262 92.567 87.894 91.64C94.8071 89.7717 101.513 85.4226 106.625 78.5439C108.692 75.7474 110.473 72.4865 111.692 68.869C111.869 69.662 112.02 70.4668 112.144 71.2821C113.405 79.6357 111.564 87.7412 107.475 94.463C112.06 90.888 115.986 86.5075 118.939 81.4242C121.052 77.7864 122.688 73.7786 123.723 69.4229C121.377 68.224 119.626 65.9768 119.207 63.2055C118.597 59.159 121.027 55.3596 124.805 54.0533C124.295 47.7999 122.665 41.048 119.696 33.8358C119.093 33.9898 118.476 34.1202 117.846 34.2129C108.313 35.6069 99.4327 29.1216 98.0144 19.7309C96.5963 10.3399 103.176 1.59564 112.709 0.200781C113.602 0.070079 114.487 0.00881051 115.364 0.0118247L115.363 0.0126915ZM99.9421 93.1802C99.0182 93.0851 98.1676 94.0006 98.0412 95.2249C97.9156 96.445 98.5613 97.5149 99.4853 97.6103C100.409 97.7055 101.259 96.7899 101.385 95.5699C101.512 94.3454 100.866 93.2756 99.9421 93.1802ZM107.629 86.897C106.926 86.8247 106.276 87.5212 106.18 88.4529C106.084 89.3847 106.578 90.2012 107.281 90.2739C107.984 90.3466 108.633 89.6481 108.729 88.7163C108.826 87.7845 108.333 86.9696 107.629 86.897ZM127.607 54.7198C125.836 54.7199 124.22 55.3972 122.99 56.5115L122.99 56.5123C122.979 56.5223 122.968 56.5327 122.957 56.5435L122.957 56.5427C122.217 57.2165 121.625 58.0449 121.22 58.9705C120.816 59.8962 120.607 60.8996 120.608 61.914C120.608 63.9063 121.398 65.7107 122.675 67.0124L122.937 67.2655C122.963 67.2939 122.992 67.3208 123.022 67.3444C124.292 68.4818 125.92 69.1077 127.607 69.1048C129.304 69.1074 130.941 68.4733 132.214 67.3236L132.215 67.3244L132.222 67.3184L132.221 67.3175C132.222 67.3162 132.224 67.3154 132.226 67.314L132.225 67.3132C132.974 66.6414 133.574 65.8141 133.985 64.8853C134.346 64.0695 134.555 63.1922 134.601 62.2998L134.61 61.9166V61.7372L134.603 61.7338C134.559 59.8102 133.78 58.0728 132.54 56.8096L132.278 56.5565L132.27 56.5496C132.252 56.5313 132.232 56.5144 132.212 56.4985C131.02 55.4217 129.505 54.798 127.924 54.7268L127.607 54.7198ZM114.946 3.31336C111.435 3.3134 108.229 4.61756 105.784 6.76831C105.76 6.78866 105.736 6.81035 105.714 6.83332C104.244 8.13498 103.068 9.73555 102.262 11.526C101.457 13.3166 101.041 15.2582 101.043 17.2216C101.043 21.3356 102.833 25.0313 105.675 27.5734L105.683 27.5804L105.687 27.5838C105.705 27.6033 105.724 27.623 105.743 27.641L105.829 27.7121C108.353 29.9186 111.593 31.1314 114.946 31.1255C118.313 31.1305 121.566 29.9072 124.095 27.6844L124.109 27.6714C124.11 27.6701 124.112 27.6692 124.114 27.6679L124.113 27.667C125.601 26.3693 126.795 24.7689 127.613 22.9717C128.434 21.1681 128.858 19.2085 128.856 17.2268V17.0413L128.851 17.0387C128.802 12.993 127.022 9.36464 124.218 6.85932L124.21 6.85238L124.2 6.84372C124.159 6.80306 124.116 6.76568 124.069 6.73277C121.623 4.59231 118.504 3.38475 115.261 3.31682L114.946 3.31336Z" fill="white"/>
<path d="M13.2736 67.1649C14.0452 67.2329 14.7765 67.3979 15.4639 67.6495C14.8545 68.9295 14.0818 69.7929 13.2736 70.1276V67.1649Z" fill="white"/>
<path d="M11.7654 70.1258C10.9572 69.792 10.1844 68.9312 9.57509 67.6486C10.242 67.4019 10.987 67.2334 11.7654 67.1649V70.1258Z" fill="white"/>
<path d="M16.8456 68.3047C17.0662 68.4338 17.2711 68.5668 17.467 68.7052C17.0639 68.9932 16.6361 69.2441 16.1894 69.4567C16.4378 69.0908 16.6572 68.7057 16.8456 68.3047Z" fill="white"/>
<path d="M8.19779 68.303C8.38342 68.7018 8.60095 69.0844 8.847 69.448C8.4034 69.2368 7.97802 68.9886 7.57631 68.7043C7.77398 68.5639 7.9823 68.4291 8.19779 68.303Z" fill="white"/>
<path d="M6.87683 62.474C6.92559 63.9751 7.18136 65.4616 7.63612 66.8928C7.18696 67.1436 6.78164 67.4097 6.40097 67.6997C5.01566 66.2896 4.16492 64.4426 3.99308 62.474H6.87683Z" fill="white"/>
<path d="M21.0468 62.474C20.8736 64.4418 20.0223 66.2879 18.638 67.6989C18.2464 67.3988 17.8335 67.1279 17.402 66.8884C17.8399 65.5503 18.1109 64.0422 18.1622 62.474H21.0468Z" fill="white"/>
<path d="M16.6549 62.474C16.6034 63.7548 16.3867 65.023 16.01 66.2479C15.1313 65.9185 14.2099 65.7182 13.2736 65.6524V62.474H16.6549Z" fill="white"/>
<path d="M11.7654 62.4731V65.6524C10.8307 65.7208 9.9104 65.9196 9.03162 66.2444C8.66972 65.1007 8.4391 63.8131 8.38414 62.4731H11.7654Z" fill="white"/>
<path d="M6.39924 55.7392C6.78337 56.0341 7.19989 56.3068 7.63699 56.5496C7.19886 57.8881 6.92903 59.397 6.87769 60.9658H3.99135C4.16454 58.9978 5.01484 57.1503 6.39924 55.7392Z" fill="white"/>
<path d="M16.0065 57.1936C16.3687 58.3382 16.5999 59.6255 16.6549 60.9658H13.2736V57.7856C14.2081 57.7172 15.1279 57.5183 16.0065 57.1936Z" fill="white"/>
<path d="M18.6372 55.7383C20.0233 57.1487 20.875 58.9964 21.0468 60.9658H18.1622C18.1134 59.4643 17.8578 57.9776 17.4029 56.5461C17.8331 56.3064 18.2453 56.0365 18.6372 55.7383Z" fill="white"/>
<path d="M9.03075 57.1901C9.90925 57.5182 10.8299 57.7178 11.7654 57.7847V60.9649H8.38501C8.4398 59.6477 8.66148 58.3864 9.03075 57.1901Z" fill="white"/>
<path d="M11.7637 56.2748C11.0152 56.2099 10.2787 56.0467 9.57335 55.7886C10.1847 54.5098 10.9566 53.6471 11.7637 53.3122V56.2748Z" fill="white"/>
<path d="M13.2736 53.3122C14.0818 53.6459 14.8538 54.5072 15.4631 55.7894C14.7962 56.0362 14.0517 56.2054 13.2736 56.274V53.3122Z" fill="white"/>
<path d="M16.1903 53.9874C16.6365 54.1997 17.0637 54.4503 17.467 54.7372C17.2691 54.8778 17.0597 55.0114 16.8438 55.1376C16.6564 54.7372 16.4375 54.3529 16.1903 53.9874Z" fill="white"/>
<path d="M8.85047 53.9796C8.60162 54.346 8.38124 54.7316 8.19259 55.1333C7.97985 55.0086 7.77245 54.8752 7.57111 54.7328C7.97483 54.4444 8.40313 54.1925 8.85047 53.9796Z" fill="white"/>
<path fill-rule="evenodd" clip-rule="evenodd" d="M59.7213 31.9012C75.0522 31.8454 89.3762 38.6775 99.6924 49.4785C103.953 52.9683 107.402 57.437 109.651 62.6031C109.511 63.4362 109.331 64.2627 109.106 65.0752C108.084 68.8127 106.258 72.2416 104.012 75.1228C99.4938 80.9127 93.449 84.6138 87.3254 86.0242C86.4652 86.2248 85.6008 86.3659 84.738 86.4749C85.3188 86.0394 85.9004 85.6116 86.4551 85.1097C89.6559 82.2001 92.0119 77.5131 92.7929 72.6603C93.6107 67.7993 93.1426 62.943 91.9158 58.6897C90.685 54.4162 88.6995 50.6656 86.2454 47.6322C81.4481 41.6665 74.9012 38.6708 68.3751 38.3405C65.5513 37.8075 62.6669 37.533 59.7499 37.5439C47.4739 37.5889 34.483 42.5618 22.6824 54.7814C23.7177 56.2524 24.4392 57.9763 24.7245 59.8659C25.7175 66.4428 21.106 72.5691 14.4299 73.5461C7.75339 74.523 1.54363 69.9809 0.550263 63.404C-0.442658 56.8272 4.15902 50.7009 10.8354 49.7238C13.5468 49.3271 16.1859 49.8448 18.4274 51.0352C31.2341 37.7846 45.8153 31.9526 59.7213 31.9012ZM12.5178 51.6506C9.97384 51.6507 7.65044 52.5958 5.88004 54.1547L5.88091 54.1556C5.86434 54.1696 5.84842 54.1843 5.83323 54.1998L5.63561 54.3783C4.66284 55.2871 3.88017 56.382 3.33347 57.5975C2.7503 58.8943 2.44916 60.3006 2.45023 61.7225C2.45033 64.7011 3.74636 67.3768 5.80376 69.2175L5.92078 69.3223C7.74773 70.9176 10.0919 71.7942 12.5178 71.79C14.9623 71.7937 17.3241 70.9041 19.1572 69.2868L19.1564 69.2859C20.2337 68.3462 21.0985 67.1869 21.6908 65.8856C22.248 64.6611 22.5522 63.3377 22.5871 61.9947L22.5905 61.726V61.5431L22.5862 61.5405C22.5398 58.8159 21.4103 56.3555 19.6088 54.5725L19.2318 54.218L19.224 54.2119L19.2145 54.2032C19.1886 54.1779 19.1612 54.1545 19.1321 54.133C17.417 52.629 15.2429 51.7593 12.9728 51.6601L12.5178 51.6506ZM100.423 53.3521C99.4975 53.2566 98.6476 54.172 98.5214 55.3942C98.3954 56.6183 99.0401 57.6863 99.9655 57.7821C100.888 57.8774 101.74 56.9632 101.866 55.7392C101.992 54.5168 101.346 53.4473 100.423 53.3521Z" fill="white"/>
<path fill-rule="evenodd" clip-rule="evenodd" d="M67.5352 42.5972C73.6075 43.0021 79.4451 45.9325 83.5298 51.3238C85.5649 53.9948 87.155 57.2371 88.082 60.769C89.013 64.2917 89.247 68.1393 88.5718 71.6488C87.9925 74.6925 86.6566 77.3248 84.8325 79.2781C84.8428 78.5973 84.8074 77.9313 84.7181 77.3313C84.4831 75.7962 84.0524 74.4984 83.5549 73.3624C82.5793 71.2132 81.5491 69.4146 80.3695 67.633C78.0288 64.1234 75.2712 61.1693 72.2713 58.7833C66.2618 54.0164 59.3003 51.4397 52.1873 51.1851C51.7179 51.1683 51.2468 51.1622 50.7753 51.1669C53.0298 49.556 55.3976 48.0885 57.8603 46.7811C60.7996 44.9476 64.0476 43.5189 67.5352 42.5859V42.5972ZM77.7285 51.0404C77.194 49.8401 76.0495 49.1803 75.1715 49.5712C74.2957 49.9615 74.0203 51.2532 74.5543 52.4532C75.0889 53.6536 76.2328 54.3105 77.1087 53.9207C77.9864 53.5296 78.2626 52.2405 77.7285 51.0404Z" fill="white"/>
<path d="M40.9487 100.632C40.6442 101.621 39.8366 102.267 38.8966 102.267C38.6847 102.267 38.5126 102.439 38.5126 102.663C38.5126 102.887 38.7509 103.059 39.0554 103.059C40.0219 103.059 40.6045 103.573 40.8958 104.668C41.24 105.907 41.7299 105.907 41.9814 104.668C42.1933 103.639 42.2197 103.613 43.4113 103.204C43.9409 103.032 44.3646 102.782 44.3646 102.663C44.3646 102.544 43.9409 102.294 43.4113 102.122C42.2197 101.714 42.1933 101.687 41.9814 100.659C41.7431 99.4453 41.3062 99.4453 40.9487 100.632Z" fill="white"/>
<path d="M135.937 76.1788C135.795 76.6237 136.008 77.7765 136.446 78.7839C137.408 81.0003 135.138 85.4825 132.478 86.6378C129.858 87.7757 131.215 89.2459 134.467 88.7914C137.881 88.2669 139.811 88.9613 141.78 91.5072C143.968 94.3406 146.022 94.2151 144.797 91.3943C143.624 88.6944 145.5 83.8564 148.161 82.7011C149.451 82.1409 150.024 81.365 149.692 80.5993C149.359 79.8337 148.401 79.723 147.111 80.2832C144.491 81.4211 139.635 79.5066 138.497 76.8873C137.64 74.9128 136.594 74.6006 135.937 76.1788Z" fill="white"/>
<path d="M17.742 79.4945C17.4287 79.703 16.9825 80.5361 16.7506 81.3906C16.2405 83.2705 12.5572 84.9498 10.3027 84.3379C8.08229 83.7354 8.19583 85.3442 10.4698 86.6952C12.8805 88.0834 13.7451 89.4923 13.7014 92.086C13.6518 94.9716 15.0064 95.9264 15.6557 93.5338C16.2772 91.2438 19.8916 89.1421 22.1462 89.7539C23.2393 90.0506 23.9904 89.8508 24.1666 89.2013C24.3429 88.5519 23.7959 87.9998 22.7027 87.7031C20.4823 87.1006 18.3921 83.4507 18.995 81.229C19.4495 79.5542 18.9489 78.8312 17.742 79.4945Z" fill="white"/>
<path d="M70.9779 133.961C70.726 134.248 70.5101 135.184 70.5101 136.083C70.5101 138.062 67.3431 140.688 64.9679 140.688C62.6287 140.688 63.1685 142.235 65.7597 142.954C68.4948 143.674 69.7183 144.825 70.3661 147.379C71.0859 150.221 72.6694 150.797 72.6694 148.279C72.6694 145.868 75.6563 142.846 78.0316 142.846C79.1832 142.846 79.8669 142.451 79.8669 141.767C79.8669 141.084 79.1832 140.688 78.0316 140.688C75.6923 140.688 72.6694 137.666 72.6694 135.328C72.6694 133.565 71.9856 132.989 70.9779 133.961Z" fill="white"/>
<path d="M77.4043 5.02683C75.9861 8.42566 71.0224 11.648 67.9255 11.1078C66.8576 10.9215 65.8283 11.4601 65.6693 12.3716C65.5103 13.283 66.3498 14.1476 67.5779 14.3619C71.4758 15.0418 73.4698 17.489 73.8776 22.0903C74.3774 27.4258 75.6468 28.034 77.2587 23.8402C78.7891 19.798 82.849 17.0257 86.2129 17.6125C87.8681 17.9013 88.9855 17.4885 89.1632 16.4698C89.3222 15.5584 88.7496 14.7403 87.8953 14.5913C84.1043 13.93 81.3054 10.7347 80.8228 6.56233C80.1881 1.36901 79.123 0.851729 77.4043 5.02683Z" fill="white"/>
<path d="M107.821 109.636C107.673 109.805 107.546 110.333 107.546 110.84C107.546 111.939 106.532 112.911 104.801 113.461C103.238 113.968 103.301 114.517 104.906 114.94C106.406 115.341 107.419 116.398 107.61 117.772C107.821 119.23 108.813 119.441 108.813 118.046C108.813 116.63 110.566 114.855 111.96 114.855C113.565 114.855 113.291 113.735 111.601 113.418C109.912 113.101 109.341 112.51 108.982 110.692C108.708 109.382 108.391 109.086 107.821 109.636Z" fill="white"/>
<path d="M111.033 44.1183C110.446 45.2832 108.619 46.2409 107.527 45.9341C107.156 45.8301 106.773 45.9844 106.684 46.3019C106.595 46.6194 106.86 46.9558 107.286 47.0754C108.619 47.4498 109.253 48.3935 109.267 50.0497C109.309 52.0359 109.664 52.1959 110.45 50.6035C111.113 49.2383 112.526 48.5471 113.822 48.9111C114.341 49.0567 114.737 48.9262 114.832 48.5901C114.921 48.2726 114.674 47.9414 114.304 47.8374C113.23 47.5358 112.137 45.7378 112.205 44.4272C112.294 42.9008 111.72 42.7396 111.033 44.1183Z" fill="white"/>
<path d="M34.7857 21.1069C34.7176 21.4216 34.9254 22.1722 35.2774 22.8083C36.0402 24.1866 35.4434 26.1095 33.6526 28.0007C32.0444 29.7217 32.5053 30.3668 34.8119 29.7828C36.9713 29.2456 38.9763 29.8672 40.1681 31.4581C41.4451 33.1403 42.8368 32.7164 41.8687 30.967C40.8859 29.1912 41.8524 25.748 43.6008 24.7804C45.667 23.637 44.4922 22.4521 42.0853 23.2301C40.0404 23.9117 37.3655 22.8299 36.2948 20.895C35.8254 20.0469 35.0841 20.1455 34.7857 21.1069Z" fill="white"/>
</svg>
