<svg width="306" height="544" viewBox="0 0 306 544" fill="none" xmlns="http://www.w3.org/2000/svg">
<path fill-rule="evenodd" clip-rule="evenodd" d="M170.604 303.394C154.429 298.701 138.984 295.005 123.933 289.485C117.34 287.071 108.719 287.891 105.655 275.671C103.3 266.249 104.567 260.56 111.185 256.228C136.183 239.878 161.153 223.437 186.112 206.983C201.55 196.799 216.962 186.557 232.356 176.284C235.681 174.071 238.9 171.575 242.159 169.226C226.473 161.493 211.121 153.972 195.799 146.355C187.248 142.106 178.425 138.482 170.377 132.929C167.096 130.666 164.195 124.329 163.586 119.296C162.984 114.358 162.815 107.694 167.919 104.002C183.43 92.768 198.919 81.4398 214.105 69.465C232.598 54.8847 250.837 39.7384 269.07 24.5826C277.447 17.6161 285.768 10.4443 293.677 2.60112C298.642 -2.31517 300.967 0.253228 303.29 6.00529C307.902 17.4335 306.68 23.5028 298.367 30.5955C278.377 47.6399 258.662 65.2764 238.367 81.635C224.488 92.8277 209.803 102.265 195.509 112.536C193.692 113.845 192.004 115.458 188.597 118.325C200.704 124.628 211.188 130.612 221.946 135.556C234.552 141.351 247.766 145.108 259.988 152.007C265.413 155.073 269.617 163.166 273.117 170.088C274.047 171.944 271.156 179.989 268.667 181.707C242.703 199.576 216.517 216.905 190.274 234.045C173.35 245.1 156.22 255.574 139.211 266.37C138.47 266.838 137.941 267.908 135.96 270.404C149.642 273.97 161.929 277.289 174.261 280.326C180.288 281.809 186.389 282.805 192.454 283.97C198.289 285.096 205.105 294.129 205.838 302.116C206.603 310.46 202.009 313.366 197.401 316.322C163.263 338.228 129.163 360.256 94.9968 382.105C90.3765 385.062 85.4607 387.196 80.5833 391.84C85.1234 393.352 89.6044 395.226 94.1969 396.324C107.388 399.48 120.613 402.352 133.835 405.3C140.045 406.687 147.017 415.206 147.238 423.421C147.324 426.507 145.177 431.026 143.061 432.762C106.728 462.662 70.184 492.128 33.8097 521.972C26.9976 527.556 20.6478 534.198 14.2448 540.636C9.53513 545.367 6.07472 543.845 3.01688 537.889C-2.57593 526.988 -0.476699 518.313 10.0178 509.76C33.9831 490.226 57.9638 470.759 81.9343 451.252C91.9841 443.077 102.031 434.906 111.973 424.257C107.799 423.209 103.546 422.53 99.4626 421.039C85.0374 415.791 70.5637 410.694 56.3305 404.624C50.8734 402.292 48.7404 396.261 48.6969 387.71C48.6511 379.803 52.1102 379.813 55.7602 377.551C92.985 354.4 130.114 330.972 167.238 307.525C168.416 306.784 169.247 305.099 170.604 303.394Z" fill="#93C5FD"/>
</svg>
