<svg width="291" height="516" viewBox="0 0 291 516" fill="none" xmlns="http://www.w3.org/2000/svg">
<path fill-rule="evenodd" clip-rule="evenodd" d="M128.327 227.583C143.679 232.045 158.336 235.561 172.621 240.807C178.877 243.101 187.058 242.329 189.97 253.922C192.208 262.861 191.008 268.257 184.73 272.361C161.015 287.854 137.326 303.433 113.648 319.024C99.0023 328.674 84.3814 338.379 69.777 348.114C66.6223 350.211 63.5691 352.576 60.4772 354.803C75.3649 362.148 89.936 369.293 104.478 376.528C112.594 380.564 120.968 384.007 128.607 389.28C131.721 391.429 134.477 397.442 135.056 402.216C135.629 406.901 135.792 413.222 130.95 416.721C116.236 427.367 101.542 438.102 87.1361 449.451C69.5931 463.269 52.2909 477.625 34.9946 491.989C27.0485 498.592 19.1548 505.389 11.6524 512.824C6.94278 517.484 4.736 515.046 2.52978 509.588C-1.85112 498.745 -0.69395 492.989 7.19221 486.266C26.1541 470.111 44.8562 453.395 64.1085 437.891C77.2744 427.283 91.2061 418.341 104.766 408.608C106.489 407.367 108.091 405.838 111.323 403.121C99.8322 397.134 89.8809 391.451 79.6705 386.754C67.7066 381.249 55.1658 377.677 43.565 371.124C38.4161 368.213 34.4243 360.533 31.1005 353.964C30.2165 352.204 32.9573 344.574 35.3182 342.947C59.9494 326.013 84.7914 309.593 109.689 293.352C125.744 282.876 141.995 272.952 158.132 262.723C158.834 262.279 159.336 261.264 161.215 258.898C148.23 255.506 136.569 252.35 124.866 249.461C119.147 248.05 113.357 247.102 107.601 245.993C102.064 244.921 95.5923 236.348 94.8935 228.771C94.1645 220.857 98.5225 218.103 102.895 215.302C135.281 194.545 167.631 173.672 200.044 152.969C204.427 150.168 209.091 148.147 213.718 143.745C209.409 142.308 205.156 140.527 200.798 139.482C188.28 136.48 175.729 133.747 163.181 130.942C157.288 129.623 150.669 121.537 150.456 113.744C150.372 110.817 152.409 106.532 154.415 104.886C188.882 76.5475 223.548 48.6217 258.054 20.3366C264.516 15.0435 270.539 8.74804 276.613 2.64559C281.08 -1.8397 284.364 -0.39298 287.268 5.25858C292.579 15.6022 290.591 23.8292 280.635 31.9358C257.901 50.4493 235.153 68.8994 212.413 87.3869C202.88 95.1357 193.349 102.88 183.919 112.975C187.88 113.972 191.916 114.618 195.792 116.035C209.482 121.022 223.219 125.867 236.727 131.634C241.906 133.85 243.933 139.572 243.977 147.684C244.024 155.183 240.741 155.172 237.278 157.315C201.963 179.251 166.74 201.45 131.52 223.667C130.403 224.368 129.615 225.966 128.327 227.583Z" fill="#E0F2FE" fill-opacity="0.5"/>
</svg>
