<svg width="304" height="430" viewBox="0 0 304 430" fill="none" xmlns="http://www.w3.org/2000/svg">
<path fill-rule="evenodd" clip-rule="evenodd" d="M152.122 179.789C168.069 191.083 184.226 199.726 199.958 209.116C204.756 211.988 209.603 214.92 213.914 218.578C218.169 222.174 220.429 227.626 218.277 234.986C216.002 242.794 211.154 247.501 204.502 249.295C192.98 252.43 181.432 255.638 169.899 258.548C149.601 263.695 129.3 268.334 109.039 275.453C104.758 276.953 100.355 277.839 96.1079 281.207C96.1021 285.52 99.1182 286.754 101.279 288.53C117.905 302.244 134.684 315.743 151.366 329.369C155.459 332.727 159.882 335.698 162.851 340.488C168.726 349.972 165.42 362.162 154.911 369.064C151.232 371.495 147.174 372.959 143.246 374.504C124.273 381.894 105.171 387.164 86.0913 393.132C74.9782 396.608 63.8374 400.121 52.7913 404.298C40.124 409.098 27.6378 414.662 16.2725 424.986C10.0551 430.628 4.44426 430.302 1.50768 425.653C-1.41611 421.017 -0.106591 414.474 5.60383 407.934C11.9627 400.627 19.4291 395.646 27.2137 391.445C53.2173 377.445 79.8737 369.518 106.49 361.035C115.029 358.316 123.559 355.311 132.613 352.282C130.886 346.363 127.158 345.153 124.358 342.889C107.569 329.397 90.5631 316.222 74.9606 301.011C73.0536 299.139 71.0097 297.416 69.2618 295.362C61.6563 286.532 63.6438 274.831 74.3736 265.851C78.9981 261.991 84.0157 259.364 89.1743 257.111C113.248 246.655 137.541 240.948 161.812 234.725C166.823 233.457 171.992 233.218 178.327 229.005C174.469 226.436 171.617 224.302 168.563 222.517C153.362 213.646 138.407 204.331 123.999 194.064C121.257 192.101 118.411 190.195 116.092 187.675C109.093 180.02 112.176 167.436 122.56 161.442C128.325 158.109 134.341 156.432 140.333 155.03C167.394 148.711 194.45 142.478 221.516 136.17C226.219 135.077 230.929 133.783 236.355 132.408C235.493 127.082 231.975 126.171 229.494 124.257C213.116 111.511 196.613 98.9741 180.213 86.2603C174.813 82.0592 168.977 77.7856 171.087 67.6602C173.332 56.8982 181.27 52.8654 188.71 49.4832C211.798 38.9696 234.961 29.0291 258.081 18.5888C264.583 15.6387 270.983 13.0521 276.55 5.88472C282.221 -1.39221 295.354 -1.67649 300.669 3.68776C306.703 9.75754 304.191 21.4 295.135 26.7618C287.175 31.4886 278.903 35.2509 270.684 39.0181C252.309 47.4315 233.871 55.5848 215.463 63.8884C212.05 65.4387 208.207 65.7384 205.647 70.2749C207.547 74.634 211.453 76.2859 214.659 78.7669C226.599 87.9961 238.702 96.9664 250.742 106.044C256.447 110.365 262.204 114.737 266.672 120.696C274.818 131.579 269.52 147.601 255.83 152.642C246.379 156.118 236.752 158.397 227.22 160.627C206.517 165.49 185.83 169.875 165.134 174.635C161.285 175.519 157.243 175.279 152.122 179.789Z" fill="#DDD6FE"/>
</svg>
